<svg xmlns="http://www.w3.org/2000/svg" xmlns:xlink="http://www.w3.org/1999/xlink" width="500" zoomAndPan="magnify" viewBox="0 0 375 374.999991" height="500" preserveAspectRatio="xMidYMid meet" version="1.0"><defs><g/></defs><g fill="#000000" fill-opacity="1"><g transform="translate(51.424004, 244.739662)"><g><path d="M 82.734375 -102.65625 L 54.484375 -102.65625 L 44.390625 -65.578125 L 72.890625 -65.578125 Z M 69.609375 -69.859375 L 64.8125 -69.859375 L 69.359375 -86.765625 L 74.15625 -86.765625 Z M 39.09375 -122.578125 L 23.203125 -122.578125 C 18.40625 -122.578125 16.640625 -122.078125 15.390625 -119.796875 C 13.375 -116.78125 11.859375 -111.484375 11.859375 -106.9375 C 11.859375 -103.65625 12.359375 -101.390625 13.875 -100.125 L 25.71875 -88.28125 C 26.484375 -87.515625 27.484375 -87.265625 29.515625 -87.015625 L 24.96875 -69.609375 L 12.609375 -69.609375 C 7.8125 -69.609375 6.046875 -69.109375 4.796875 -66.84375 C 2.78125 -63.8125 1.265625 -58.515625 1.265625 -53.96875 C 1.265625 -50.703125 1.765625 -48.421875 3.28125 -47.171875 L 13.875 -36.578125 L 14.875 -35.5625 L 15.390625 -35.0625 L 13.375 -27.234375 C 12.859375 -25.46875 12.609375 -23.203125 12.609375 -21.9375 C 12.609375 -20.171875 13.109375 -19.171875 14.125 -18.15625 L 25.71875 -6.3125 C 27.75 -4.546875 33.296875 -3.03125 38.59375 -3.03125 C 45.40625 -3.03125 47.421875 -4.546875 49.1875 -10.84375 L 55.234375 -33.796875 L 60.03125 -33.796875 L 58.265625 -27.234375 C 57.5 -25.21875 57.25 -22.953125 57.25 -21.9375 C 57.25 -20.4375 57.765625 -19.171875 58.765625 -18.15625 L 70.625 -6.3125 C 72.390625 -4.546875 77.9375 -3.03125 83.234375 -3.03125 C 90.296875 -3.03125 92.0625 -4.546875 93.828125 -10.84375 L 99.875 -33.796875 L 114.25 -33.796875 C 120.5625 -33.796875 122.828125 -34.296875 124.34375 -36.578125 C 125.609375 -38.34375 127.125 -44.890625 127.125 -48.9375 C 127.125 -52.203125 126.359375 -54.484375 125.09375 -55.734375 L 113.5 -67.34375 C 112.484375 -68.34375 111.484375 -68.859375 109.46875 -69.359375 L 114.25 -86.765625 L 124.84375 -86.765625 C 131.15625 -86.765625 133.421875 -87.265625 134.9375 -89.53125 C 136.203125 -91.296875 137.71875 -97.859375 137.71875 -101.890625 C 137.71875 -105.171875 136.953125 -107.4375 135.6875 -108.703125 L 125.09375 -119.046875 L 124.09375 -120.0625 C 124.09375 -120.3125 123.84375 -120.5625 123.328125 -120.8125 L 125.09375 -127.375 C 125.609375 -129.890625 126.109375 -132.15625 126.109375 -133.671875 C 126.109375 -135.6875 125.609375 -137.203125 124.59375 -138.21875 L 114 -148.8125 C 110.46875 -152.09375 105.9375 -153.59375 98.109375 -153.59375 C 93.0625 -153.59375 91.8125 -152.09375 89.53125 -144.015625 L 83.734375 -122.578125 L 78.9375 -122.578125 L 80.453125 -127.375 C 81.21875 -130.390625 81.46875 -132.15625 81.46875 -133.671875 C 81.46875 -135.6875 80.96875 -137.203125 79.953125 -138.21875 L 69.359375 -148.8125 C 65.828125 -152.34375 61.296875 -153.59375 53.46875 -153.59375 C 48.171875 -153.59375 46.90625 -152.09375 44.640625 -144.015625 Z M 87.015625 -118.296875 L 93.578125 -142.75 C 95.09375 -149.0625 95.59375 -149.5625 98.109375 -149.5625 C 99.375 -149.5625 105.171875 -148.8125 106.6875 -148.296875 C 109.203125 -147.796875 110.21875 -146.796875 110.21875 -145.03125 C 110.21875 -144.015625 110.21875 -143.515625 109.203125 -140.234375 L 103.40625 -118.296875 L 114.5 -118.296875 C 121.0625 -118.296875 121.5625 -118.03125 121.5625 -113.75 C 121.5625 -110.71875 120.8125 -105.421875 120.0625 -104.171875 C 119.296875 -102.90625 119.296875 -102.90625 113 -102.65625 L 99.125 -102.65625 L 89.28125 -65.328125 L 103.921875 -65.328125 C 110.21875 -65.328125 111.234375 -64.8125 111.234375 -61.546875 C 111.234375 -57.25 109.96875 -51.953125 108.703125 -50.703125 C 108.203125 -49.9375 108.203125 -49.9375 102.40625 -49.6875 L 85 -49.6875 L 77.9375 -23.703125 C 76.921875 -19.421875 76.171875 -18.921875 72.640625 -18.921875 C 65.328125 -18.921875 61.546875 -20.171875 61.546875 -22.453125 C 61.546875 -23.203125 61.796875 -24.46875 62.296875 -26.234375 L 68.609375 -49.6875 L 40.109375 -49.6875 L 33.296875 -23.703125 C 32.03125 -19.171875 31.53125 -18.921875 27.75 -18.921875 C 20.6875 -18.921875 16.90625 -20.171875 16.90625 -22.453125 C 16.90625 -23.203125 17.15625 -24.96875 17.40625 -26.234375 L 23.703125 -49.6875 L 10.84375 -49.6875 C 5.546875 -49.9375 5.546875 -49.9375 5.546875 -53.96875 C 5.546875 -57 6.5625 -61.546875 7.8125 -63.8125 C 8.578125 -65.078125 8.828125 -65.328125 12.609375 -65.328125 L 28 -65.328125 L 38.078125 -102.65625 L 21.4375 -102.65625 C 16.640625 -102.65625 16.140625 -102.90625 16.140625 -106.6875 C 16.140625 -109.96875 17.15625 -114.25 18.40625 -116.78125 C 18.921875 -118.03125 19.421875 -118.296875 23.203125 -118.296875 L 42.375 -118.296875 L 48.9375 -142.75 C 50.1875 -148.296875 50.953125 -149.3125 53.71875 -149.3125 C 61.03125 -149.3125 65.578125 -147.796875 65.578125 -145.28125 C 65.578125 -144.265625 65.578125 -144.265625 64.5625 -140.234375 L 58.765625 -118.296875 Z M 87.015625 -118.296875 "/></g></g></g><g fill="#000000" fill-opacity="1"><g transform="translate(189.138605, 244.739662)"><g><path d="M 96.34375 -58.265625 C 105.9375 -71.125 105.9375 -71.125 108.203125 -74.65625 C 118.03125 -89.796875 123.078125 -103.65625 123.078125 -115.765625 C 123.078125 -123.84375 121.3125 -130.65625 117.53125 -136.453125 L 106.6875 -153.59375 C 99.875 -164.453125 86.765625 -170.75 71.125 -170.75 C 51.203125 -170.75 32.78125 -160.65625 23.203125 -144.265625 C 19.671875 -138.21875 17.15625 -130.65625 17.15625 -125.859375 C 17.15625 -122.078125 18.15625 -119.796875 20.9375 -117.78125 L 38.078125 -104.671875 C 40.359375 -103.15625 41.359375 -102.90625 47.171875 -102.65625 L 52.96875 -102.15625 L 55.234375 -101.890625 C 43.890625 -85.5 33.296875 -72.890625 13.109375 -52.46875 C 8.078125 -47.421875 6.8125 -45.40625 6.8125 -41.609375 C 6.8125 -33.546875 13.375 -20.4375 19.671875 -15.640625 L 35.5625 -3.53125 C 38.59375 -1.265625 44.890625 -0.75 68.609375 -0.75 C 91.296875 -0.75 98.625 -1.515625 101.390625 -4.03125 C 104.671875 -6.8125 109.71875 -20.171875 109.71875 -25.984375 C 109.71875 -27.484375 109.203125 -29 108.203125 -31.015625 L 97.609375 -48.671875 C 96.34375 -50.703125 95.09375 -51.703125 92.3125 -52.71875 Z M 86.765625 -48.171875 C 92.3125 -48.421875 94.578125 -46.90625 94.578125 -43.125 C 94.578125 -41.109375 93.828125 -38.078125 92.5625 -33.296875 C 89.796875 -23.453125 87.765625 -20.171875 83.734375 -18.671875 C 80.703125 -17.65625 69.109375 -16.90625 57 -16.90625 C 33.046875 -16.90625 23.453125 -17.65625 20.9375 -19.671875 C 17.15625 -22.953125 10.84375 -36.578125 10.84375 -41.109375 C 10.84375 -44.140625 11.609375 -45.140625 21.4375 -54.734375 C 48.171875 -80.203125 72.140625 -114 72.140625 -126.109375 C 72.140625 -129.890625 69.609375 -132.421875 65.828125 -132.421875 C 61.796875 -132.421875 57 -128.625 53.46875 -122.578125 C 51.203125 -118.546875 50.703125 -118.296875 43.375 -118.296875 C 24.96875 -118.296875 21.1875 -119.546875 21.1875 -125.359375 C 21.1875 -130.140625 24.21875 -138.21875 28.25 -144.265625 C 37.328125 -157.890625 53.96875 -166.46875 70.875 -166.46875 C 93.328125 -166.46875 107.953125 -152.84375 107.953125 -132.15625 C 107.953125 -117.53125 100.890625 -101.140625 86.265625 -80.96875 C 79.203125 -71.375 76.421875 -68.34375 56.5 -47.421875 Z M 86.765625 -48.171875 "/></g></g></g></svg>