<svg xmlns="http://www.w3.org/2000/svg" xmlns:xlink="http://www.w3.org/1999/xlink" width="500" zoomAndPan="magnify" viewBox="0 0 375 374.999991" height="500" preserveAspectRatio="xMidYMid meet" version="1.0"><defs><g/></defs><g fill="#000000" fill-opacity="1"><g transform="translate(51.424004, 244.739691)"><g><path d="M 82.734375 -102.65625 L 54.484375 -102.65625 L 44.390625 -65.578125 L 72.890625 -65.578125 Z M 69.609375 -69.859375 L 64.8125 -69.859375 L 69.359375 -86.765625 L 74.15625 -86.765625 Z M 39.09375 -122.578125 L 23.203125 -122.578125 C 18.40625 -122.578125 16.640625 -122.078125 15.390625 -119.796875 C 13.375 -116.78125 11.859375 -111.484375 11.859375 -106.9375 C 11.859375 -103.65625 12.359375 -101.390625 13.875 -100.125 L 25.71875 -88.28125 C 26.484375 -87.515625 27.484375 -87.265625 29.515625 -87.015625 L 24.96875 -69.609375 L 12.609375 -69.609375 C 7.8125 -69.609375 6.046875 -69.109375 4.796875 -66.84375 C 2.78125 -63.8125 1.265625 -58.515625 1.265625 -53.96875 C 1.265625 -50.703125 1.765625 -48.421875 3.28125 -47.171875 L 13.875 -36.578125 L 14.875 -35.5625 L 15.390625 -35.0625 L 13.375 -27.234375 C 12.859375 -25.46875 12.609375 -23.203125 12.609375 -21.9375 C 12.609375 -20.171875 13.109375 -19.171875 14.125 -18.15625 L 25.71875 -6.3125 C 27.75 -4.546875 33.296875 -3.03125 38.59375 -3.03125 C 45.40625 -3.03125 47.421875 -4.546875 49.1875 -10.84375 L 55.234375 -33.796875 L 60.03125 -33.796875 L 58.265625 -27.234375 C 57.5 -25.21875 57.25 -22.953125 57.25 -21.9375 C 57.25 -20.4375 57.765625 -19.171875 58.765625 -18.15625 L 70.625 -6.3125 C 72.390625 -4.546875 77.9375 -3.03125 83.234375 -3.03125 C 90.296875 -3.03125 92.0625 -4.546875 93.828125 -10.84375 L 99.875 -33.796875 L 114.25 -33.796875 C 120.5625 -33.796875 122.828125 -34.296875 124.34375 -36.578125 C 125.609375 -38.34375 127.125 -44.890625 127.125 -48.9375 C 127.125 -52.203125 126.359375 -54.484375 125.09375 -55.734375 L 113.5 -67.34375 C 112.484375 -68.34375 111.484375 -68.859375 109.46875 -69.359375 L 114.25 -86.765625 L 124.84375 -86.765625 C 131.15625 -86.765625 133.421875 -87.265625 134.9375 -89.53125 C 136.203125 -91.296875 137.71875 -97.859375 137.71875 -101.890625 C 137.71875 -105.171875 136.953125 -107.4375 135.6875 -108.703125 L 125.09375 -119.046875 L 124.09375 -120.0625 C 124.09375 -120.3125 123.84375 -120.5625 123.328125 -120.8125 L 125.09375 -127.375 C 125.609375 -129.890625 126.109375 -132.15625 126.109375 -133.671875 C 126.109375 -135.6875 125.609375 -137.203125 124.59375 -138.21875 L 114 -148.8125 C 110.46875 -152.09375 105.9375 -153.59375 98.109375 -153.59375 C 93.0625 -153.59375 91.8125 -152.09375 89.53125 -144.015625 L 83.734375 -122.578125 L 78.9375 -122.578125 L 80.453125 -127.375 C 81.21875 -130.390625 81.46875 -132.15625 81.46875 -133.671875 C 81.46875 -135.6875 80.96875 -137.203125 79.953125 -138.21875 L 69.359375 -148.8125 C 65.828125 -152.34375 61.296875 -153.59375 53.46875 -153.59375 C 48.171875 -153.59375 46.90625 -152.09375 44.640625 -144.015625 Z M 87.015625 -118.296875 L 93.578125 -142.75 C 95.09375 -149.0625 95.59375 -149.5625 98.109375 -149.5625 C 99.375 -149.5625 105.171875 -148.8125 106.6875 -148.296875 C 109.203125 -147.796875 110.21875 -146.796875 110.21875 -145.03125 C 110.21875 -144.015625 110.21875 -143.515625 109.203125 -140.234375 L 103.40625 -118.296875 L 114.5 -118.296875 C 121.0625 -118.296875 121.5625 -118.03125 121.5625 -113.75 C 121.5625 -110.71875 120.8125 -105.421875 120.0625 -104.171875 C 119.296875 -102.90625 119.296875 -102.90625 113 -102.65625 L 99.125 -102.65625 L 89.28125 -65.328125 L 103.921875 -65.328125 C 110.21875 -65.328125 111.234375 -64.8125 111.234375 -61.546875 C 111.234375 -57.25 109.96875 -51.953125 108.703125 -50.703125 C 108.203125 -49.9375 108.203125 -49.9375 102.40625 -49.6875 L 85 -49.6875 L 77.9375 -23.703125 C 76.921875 -19.421875 76.171875 -18.921875 72.640625 -18.921875 C 65.328125 -18.921875 61.546875 -20.171875 61.546875 -22.453125 C 61.546875 -23.203125 61.796875 -24.46875 62.296875 -26.234375 L 68.609375 -49.6875 L 40.109375 -49.6875 L 33.296875 -23.703125 C 32.03125 -19.171875 31.53125 -18.921875 27.75 -18.921875 C 20.6875 -18.921875 16.90625 -20.171875 16.90625 -22.453125 C 16.90625 -23.203125 17.15625 -24.96875 17.40625 -26.234375 L 23.703125 -49.6875 L 10.84375 -49.6875 C 5.546875 -49.9375 5.546875 -49.9375 5.546875 -53.96875 C 5.546875 -57 6.5625 -61.546875 7.8125 -63.8125 C 8.578125 -65.078125 8.828125 -65.328125 12.609375 -65.328125 L 28 -65.328125 L 38.078125 -102.65625 L 21.4375 -102.65625 C 16.640625 -102.65625 16.140625 -102.90625 16.140625 -106.6875 C 16.140625 -109.96875 17.15625 -114.25 18.40625 -116.78125 C 18.921875 -118.03125 19.421875 -118.296875 23.203125 -118.296875 L 42.375 -118.296875 L 48.9375 -142.75 C 50.1875 -148.296875 50.953125 -149.3125 53.71875 -149.3125 C 61.03125 -149.3125 65.578125 -147.796875 65.578125 -145.28125 C 65.578125 -144.265625 65.578125 -144.265625 64.5625 -140.234375 L 58.765625 -118.296875 Z M 87.015625 -118.296875 "/></g></g></g><g fill="#000000" fill-opacity="1"><g transform="translate(189.138605, 244.739691)"><g><path d="M 102.15625 -83.734375 C 115.765625 -90.546875 123.078125 -102.65625 123.078125 -117.78125 C 123.078125 -125.09375 120.5625 -133.421875 116.53125 -138.71875 L 103.40625 -156.375 C 95.84375 -166.46875 85.5 -171 70.625 -171 C 52.46875 -171 35.5625 -163.1875 25.21875 -149.8125 C 19.921875 -143.015625 16.140625 -134.6875 16.140625 -129.640625 C 16.140625 -126.109375 17.90625 -123.328125 21.1875 -121.0625 L 38.59375 -110.21875 C 40.109375 -109.46875 41.109375 -108.953125 43.640625 -108.203125 C 40.859375 -95.84375 40.359375 -92.5625 40.359375 -88.03125 C 40.359375 -82.21875 42.375 -79.453125 47.671875 -77.9375 C 58.515625 -74.40625 61.03125 -72.140625 61.03125 -65.828125 C 61.03125 -61.796875 59.78125 -58.765625 56.75 -55.234375 L 42.875 -67.59375 C 38.078125 -71.625 33.046875 -73.640625 27.234375 -73.640625 C 20.9375 -73.640625 14.625 -71.375 10.59375 -67.84375 C 7.3125 -65.078125 6.046875 -60.78125 6.046875 -53.71875 C 6.046875 -39.59375 13.625 -24.71875 24.21875 -18.40625 L 41.109375 -8.328125 C 49.1875 -3.28125 57.5 -1.015625 67.09375 -1.015625 C 95.34375 -1.015625 118.296875 -22.953125 118.296875 -49.9375 C 118.296875 -59.015625 116.015625 -65.578125 110.46875 -72.890625 Z M 80.96875 -97.109375 C 95.84375 -89.53125 101.890625 -79.953125 101.890625 -64.5625 C 101.890625 -37.828125 79.203125 -16.140625 51.453125 -16.140625 C 34.8125 -16.140625 21.6875 -22.953125 15.390625 -34.8125 C 12.359375 -40.359375 10.34375 -47.671875 10.34375 -53.96875 C 10.34375 -64.5625 15.390625 -69.109375 26.734375 -69.109375 C 35.8125 -69.109375 39.59375 -66.578125 39.84375 -60.53125 C 39.84375 -51.453125 43.890625 -46.15625 50.4375 -46.15625 C 58.265625 -46.15625 65.328125 -54.984375 65.328125 -64.8125 C 65.328125 -74.15625 60.53125 -79.703125 50.1875 -81.71875 C 45.65625 -82.46875 44.640625 -83.484375 44.640625 -86.765625 C 44.640625 -91.296875 45.65625 -97.359375 47.421875 -102.90625 C 49.4375 -109.203125 50.4375 -110.21875 54.734375 -111.484375 C 62.796875 -113.75 63.3125 -114 66.328125 -116.53125 C 69.109375 -119.046875 71.125 -123.078125 71.125 -126.859375 C 71.125 -132.421875 67.59375 -136.453125 62.546875 -136.453125 C 59.265625 -136.453125 56.25 -134.4375 53.46875 -130.65625 C 49.9375 -125.359375 49.9375 -125.359375 48.421875 -124.59375 C 45.40625 -123.328125 39.59375 -122.328125 34.546875 -122.328125 C 25.984375 -122.328125 20.171875 -125.359375 20.171875 -129.640625 C 20.171875 -132.671875 23.453125 -139.984375 26.984375 -145.28125 C 36.578125 -158.640625 52.96875 -166.96875 70.109375 -166.96875 C 91.8125 -166.96875 106.6875 -153.09375 106.6875 -132.921875 C 106.6875 -115.515625 97.609375 -102.90625 80.96875 -97.109375 Z M 80.96875 -97.109375 "/></g></g></g></svg>