<svg width="547" height="547" viewBox="0 0 547 547" fill="none" xmlns="http://www.w3.org/2000/svg">
<mask id="mask0_1_405" style="mask-type:luminance" maskUnits="userSpaceOnUse" x="21" y="48" width="505" height="451">
<path d="M525.918 48.4323H21.652V498.568H525.918V48.4323Z" fill="white"/>
</mask>
<g mask="url(#mask0_1_405)">
<path d="M516.631 274.446L499.475 278.306L496.392 295.616L492.532 278.461L475.223 275.369L492.378 271.518L495.469 254.2L499.321 271.363L516.631 274.446Z" fill="#FFED88"/>
<path d="M421.038 247.518C421.319 242.959 421.593 238.403 421.859 233.847V233.825C422.094 233.834 422.329 233.806 422.555 233.742C423.592 233.418 424.176 232.338 424.566 231.316C425.793 228.068 426.105 224.553 426.223 221.073C426.298 218.699 426.288 216.266 425.532 214.015C424.678 211.451 421.01 206.569 418.476 210.425C417.914 211.45 417.583 212.585 417.507 213.751C417.283 215.468 417.097 217.214 417.008 218.966C416.788 216.126 416.303 213.253 414.83 210.83C413.918 209.327 412.287 207.928 410.568 208.312C410.048 208.463 409.568 208.73 409.165 209.093C408.762 209.455 408.447 209.905 408.242 210.407C407.849 211.416 407.617 212.48 407.554 213.561C407.417 214.878 407.298 216.209 407.221 217.549L406.793 217.529C405.572 216.425 404.589 215.084 403.903 213.587C403.218 212.091 402.844 210.47 402.804 208.824C402.771 206.977 402.744 205.124 402.71 203.277H402.853C411.026 189.578 419.483 176.061 428.223 162.724L392.516 142.141L494.073 84.9183L500.568 209.87L464.794 186.285L422.452 262.143L422.302 262.138C422.346 261.086 422.389 260.027 422.419 258.966C422.547 255.254 422.629 251.543 422.704 247.831L421.027 247.741C421.033 247.666 421.039 247.592 421.038 247.518Z" fill="#FFED88"/>
<path d="M493.943 462C495.224 473.348 492.746 484.81 489.181 495.657L489.177 495.784C461.804 494.667 434.433 493.556 407.064 492.449L407.084 491.998C408.274 489.824 408.829 487.359 408.685 484.884C408.541 482.41 407.704 480.026 406.269 478.004C403.363 474.029 398.93 471.838 394.124 472.831C394.602 471.701 395.022 470.552 395.383 469.385C397.378 463.056 397.901 456.368 398.167 449.739C398.552 440.028 398.011 429.272 391.321 422.218C386.384 417.02 378.959 414.759 371.798 414.506C369.021 414.423 366.241 414.532 363.479 414.834L363.431 414.355L368.077 378.522C380.555 369.938 395.22 365.917 410.224 367.97C425.251 370.022 439.471 378.98 446.654 392.344C453.69 405.434 453.387 422.186 445.879 435.022C454.097 427.088 467.98 426.982 477.572 433.174C487.164 439.366 492.661 450.652 493.943 462Z" fill="#FFED88"/>
<path d="M454.78 354.124L451.022 356.986L451.248 361.697L447.365 359.013L442.957 360.688L444.313 356.167L441.355 352.486L446.076 352.373L448.661 348.425L450.225 352.881L454.78 354.124Z" fill="#FFED88"/>
<path d="M423.277 71.3516C427.37 73.7305 428.11 80.2853 424.644 83.5155C422.379 85.6237 406.507 83.0938 403.096 83.0129C395.703 82.8391 388.308 82.6659 380.91 82.4933C373.742 82.3303 365.109 83.4619 358.118 81.9657C353.681 81.013 350.351 76.4991 356.27 73.2057C359.556 71.3755 363.621 72.163 367.275 73.0581C366.254 67.6667 370.202 61.8332 375.577 60.7751C380.952 59.717 386.821 63.5956 387.942 68.9698C386.718 63.2298 386.523 56.4239 390.805 52.4211C395.947 47.6206 405.059 50.098 409.092 55.858C413.125 61.6178 413.206 69.2747 412.038 76.2096C413.114 71.5932 419.176 68.9801 423.277 71.3516Z" fill="#FFED88"/>
<path d="M393.884 217.506C393.841 218.581 393.789 219.664 393.746 220.738C393.271 220.989 392.796 221.247 392.329 221.513C391.788 221.818 391.254 222.13 390.728 222.457C391.662 220.735 392.716 219.08 393.884 217.506Z" fill="#171717"/>
<path d="M389.961 245.364L389.949 245.514C389.842 250.12 389.713 254.77 389.434 259.417C388.65 272.102 386.678 284.672 380.54 295.652C375.709 304.299 368.555 311.422 359.888 316.216C351.221 321.01 341.385 323.283 331.493 322.78C331.691 322.287 331.801 321.764 331.819 321.234C331.933 319.939 332.047 318.653 332.161 317.359C332.239 316.494 332.274 315.517 331.705 314.861C331.065 314.14 329.954 314.127 328.994 314.171L322.897 314.464V314.457C323.01 311.649 323.78 308.908 325.146 306.453C326.512 303.998 328.435 301.898 330.76 300.322L330.806 300.366C330.703 300.466 330.607 300.566 330.505 300.658C336.121 296.583 342.503 290.485 345.753 284.046C347.401 284.82 349.043 285.592 350.678 286.362C354.251 280.23 357.887 274.892 362.256 268.787C369.478 255.86 377.483 244.418 384.724 232.084L384.993 232.027C385.458 233.797 386.257 235.462 387.348 236.931C389.369 239.929 391.635 242.755 394.124 245.377L394.108 245.648C392.721 245.557 391.345 245.461 389.961 245.364Z" fill="#FFED88"/>
<path d="M394.125 472.831C393.439 474.481 392.629 476.075 391.7 477.602C389.839 480.723 387.372 483.44 384.445 485.595C383.891 485.999 383.321 486.371 382.743 486.715C378.993 488.983 374.749 490.234 370.35 490.963C367.054 491.478 363.732 491.808 360.399 491.951C339.384 493.08 316.402 492.264 292.697 491.028L292.655 490.796C294.285 490.519 295.768 489.99 296.367 488.903C296.872 487.991 296.543 486.391 296.184 485.092C296.045 484.562 295.9 484.077 295.808 483.712C295.11 480.994 293.066 478.592 290.475 476.915C289.124 476.056 287.683 475.348 286.178 474.803L286.235 474.651C295.278 462.96 301.472 444.755 311.841 434.221C313.295 432.746 316 430.906 319.578 428.95C327.135 424.933 335.065 421.661 343.255 419.178C349.841 417.084 356.613 415.63 363.478 414.837C366.24 414.535 369.02 414.425 371.797 414.509C378.959 414.762 386.384 417.023 391.32 422.222C398.01 429.274 398.55 440.03 398.166 449.743C397.901 456.372 397.374 463.059 395.382 469.389C395.02 470.551 394.602 471.702 394.125 472.831Z" fill="#171717"/>
<path d="M344.295 259.432C349.051 265.604 349.537 274.371 346.802 281.664C346.498 282.477 346.147 283.272 345.751 284.045C342.5 290.484 336.119 296.58 330.502 300.657C330.606 300.565 330.701 300.465 330.803 300.366C335.126 296.214 337.434 290.26 338.074 284.291C338.734 278.178 337.763 272.013 336.375 266.029L336.368 266.014C336.547 265.942 336.725 265.863 336.903 265.786C339.915 264.457 343.103 262.314 344.112 259.37L344.295 259.432Z" fill="#171717"/>
<path d="M309.283 269.284L309.176 269.887C310.764 283.841 308.777 302.171 291.446 306.229C291.78 309.446 291.952 312.677 291.962 315.912C291.957 318.073 291.722 320.227 291.265 322.34C290.733 324.761 289.794 327.075 288.489 329.183C284.133 336.242 276.72 341.573 268.473 342.486C263.768 343.011 258.891 342.151 254.1 341.492C248.398 340.718 242.809 340.227 237.742 342.697C232.921 345.05 229.733 349.597 227.038 354.335C226.468 355.339 225.919 356.358 225.378 357.361C220.273 366.861 215.164 376.364 210.05 385.87L210.043 385.862C206.671 377.8 204.949 369.146 204.98 360.408C205.009 351.67 206.79 343.028 210.217 334.99C213.643 326.952 218.647 319.683 224.93 313.611C231.213 307.539 238.65 302.789 246.801 299.64C249.525 298.564 252.32 297.678 255.167 296.991C256.122 296.752 257.087 296.543 258.051 296.356C260.915 295.804 263.962 295.375 266.249 293.56C269.223 291.196 270.109 287.136 271.002 283.437C273.189 274.407 276.633 265.537 282.303 258.164C283.047 257.195 283.838 256.245 284.666 255.333C290.111 249.339 297.226 244.788 305.16 243.297C315.457 241.363 325.983 244.642 335.684 248.602C339.753 250.261 344.416 252.965 344.447 257.365C344.454 258.047 344.342 258.726 344.116 259.37C343.107 262.313 339.919 264.457 336.907 265.786C336.729 265.864 336.551 265.944 336.372 266.013C327.827 269.617 318.441 270.75 309.283 269.284Z" fill="#171717"/>
<path d="M274.653 423.726C278.927 425.868 282.352 427.834 285.674 429.337C293.693 432.973 301.126 433.964 318.529 428.439L319.392 428.412L319.577 428.949C316.001 430.906 313.294 432.747 311.84 434.22C301.469 444.754 295.277 462.959 286.233 474.651L286.176 474.802C286.047 474.753 285.919 474.703 285.79 474.66C282.974 473.711 280.078 473.014 277.138 472.578C273.019 471.802 268.827 471.486 264.637 471.633C260.42 471.869 256.156 472.858 252.65 474.919C249.144 476.979 246.482 480.161 245.989 483.636L245.085 483.514C228.276 476.064 229.258 475.546 215.36 463.504C210.896 459.629 206.73 455.317 203.793 450.185C201.747 446.685 200.449 442.8 199.98 438.773C199.773 436.916 199.799 435.04 200.058 433.189C200.88 428.07 203.339 423.354 207.066 419.75C209.588 417.227 212.551 415.188 215.807 413.734C220.167 411.848 224.848 410.811 229.596 410.679C232.163 410.584 234.734 410.685 237.285 410.98C238.678 411.145 240.071 411.354 241.445 411.616C247.769 412.813 253.866 414.937 259.872 417.303C260.675 417.623 261.485 417.943 262.288 418.264C263.591 418.797 264.894 419.325 266.191 419.859C269.392 421.177 272.162 422.482 274.653 423.726Z" fill="#171717"/>
<path d="M285.675 429.339L318.53 428.441C301.126 433.964 293.692 432.974 285.675 429.339Z" fill="#FFED88"/>
<path d="M284.578 255.259L284.663 255.333C283.835 256.244 283.045 257.194 282.3 258.164C276.63 265.537 273.184 274.407 270.999 283.437C270.106 287.137 269.22 291.196 266.246 293.56C263.959 295.376 260.912 295.804 258.048 296.355C257.084 296.542 256.12 296.751 255.164 296.991L255.098 296.706L237.823 288.478L237.766 288.532C225.793 274.599 212.654 261.871 198.255 250.95L198.654 250.431C201.99 244.8 205.324 239.171 208.655 233.546C210.523 230.403 212.39 227.255 214.256 224.102C214.554 223.599 214.851 223.097 215.147 222.595C238.312 233.252 261.829 243.992 284.578 255.259Z" fill="#FFED88"/>
<path d="M229.591 410.62V410.68C224.842 410.812 220.162 411.849 215.802 413.736C212.546 415.19 209.584 417.228 207.062 419.751L206.687 419.076C199.575 410.584 192.4 402.151 185.165 393.777C185.942 387.58 186.718 381.385 187.491 375.193C201.445 389.366 216.67 401.973 229.591 410.62Z" fill="#FFED88"/>
<path d="M217.55 182.787L211.97 188.476L213.496 196.296L206.359 192.746L199.385 196.612L200.562 188.73L194.733 183.296L202.589 181.972L205.957 174.748L209.643 181.815L217.55 182.787Z" fill="#171717"/>
<path d="M206.688 419.075L207.063 419.75C203.336 423.355 200.877 428.07 200.055 433.19C199.796 435.04 199.77 436.914 199.977 438.771L199.122 438.865C186.359 438.939 173.147 435.494 162.433 431.528C156.555 429.371 150.834 426.806 145.313 423.852L144.705 423.475L162.162 395.076L162.353 395.19C169.949 394.72 177.545 394.243 185.145 393.909C185.151 393.864 185.157 393.819 185.164 393.773C192.403 402.152 199.577 410.586 206.688 419.075Z" fill="#FFED88"/>
<path d="M196.977 123.474C197.825 127.495 194.949 131.554 191.297 133.438C187.644 135.322 183.391 135.529 179.287 135.703L120.777 138.156C115.27 138.384 101.948 141.354 97.1773 137.248C90.8452 131.795 102.341 129.698 106.595 129.889C109.857 130.034 113.288 130.273 116.229 128.864C112.14 120.943 115.951 109.961 124.061 106.266C132.172 102.571 142.962 106.919 146.248 115.203C143.633 107.397 147.471 97.9648 154.799 94.2116C162.127 90.4584 172.025 92.8515 176.829 99.5329C181.634 106.214 180.749 116.364 174.862 122.112C178.455 119.568 182.412 117.161 186.806 116.882C191.199 116.604 196.065 119.159 196.977 123.474Z" fill="#171717"/>
<path d="M184.835 170.421L170.22 173.712L167.583 188.459L164.298 173.845L149.55 171.206L164.166 167.923L166.796 153.176L170.088 167.79L184.835 170.421Z" fill="#FFED88"/>
<path d="M187.492 375.192C186.714 381.382 185.939 387.576 185.166 393.776C180.881 388.826 176.578 383.898 172.258 378.993L172.113 378.906L179.41 367.036L179.61 366.851C182.173 369.678 184.8 372.459 187.492 375.192Z" fill="#FFED88"/>
<path d="M185.166 393.776C185.159 393.821 185.153 393.866 185.147 393.912C177.546 394.247 169.951 394.724 162.355 395.194L162.165 395.08L172.115 378.908L172.259 378.995C176.582 383.898 180.884 388.825 185.166 393.776Z" fill="#FFED88"/>
<path d="M142.269 345.764C143.86 343.064 145.444 340.364 147.021 337.668C148.678 334.839 150.331 332.013 151.979 329.193L152.366 329.003C158.651 341.449 168.441 354.536 179.612 366.851L179.412 367.036L172.113 378.906L162.163 395.077L144.705 423.476L105.88 486.616V486.699C89.9472 486.784 74.0626 486.88 58.2258 486.988V486.883C75.7246 457.147 93.7876 427.151 111.719 397.178C121.984 380.016 132.213 362.862 142.269 345.764Z" fill="#FFED88"/>
<path d="M162.436 431.529L162.265 431.985C155.148 433.023 148.706 436.766 144.279 442.434C139.852 448.102 137.782 455.26 138.5 462.416C135.382 461.79 132.153 462.031 129.163 463.113C126.173 464.195 123.538 466.077 121.543 468.553C119.549 471.029 118.272 474.005 117.851 477.157C117.431 480.308 117.883 483.514 119.159 486.427L119.163 486.63L105.881 486.701V486.618L144.708 423.478L145.317 423.855C150.837 426.809 156.558 429.373 162.436 431.529Z" fill="#171717"/>
<path d="M147.022 337.669C145.445 340.363 143.861 343.062 142.269 345.766C132.212 362.863 122.029 380 111.718 397.179L111.467 397.027C107.483 392.605 103.911 387.828 100.795 382.756C75.2921 341.919 64.6797 273.123 64.1162 263.366C84.6384 268.256 104.759 274.698 124.305 282.637C129.541 284.764 134.735 287.002 139.885 289.349C141.843 300.35 144.89 311.129 148.983 321.527C149.954 323.983 151.081 326.476 152.364 329.005L151.977 329.194C150.334 332.016 148.682 334.841 147.022 337.669Z" fill="#FFED88"/>
<path d="M111.468 397.026L111.719 397.178C93.7877 427.149 75.7253 457.144 58.2253 486.883V486.988C51.9026 487.032 45.5958 487.077 39.3046 487.125C35.0408 487.16 30.397 487.06 27.1008 484.355C23.2381 481.19 22.5857 475.497 23.3014 470.548C24.0369 465.471 25.8815 460.62 28.7043 456.336C31.527 452.054 35.2585 448.445 39.6336 445.768C44.0086 443.09 48.9197 441.41 54.0178 440.845C59.1159 440.28 64.2759 440.845 69.1311 442.5C67.0542 436.54 66.2252 430.216 66.6964 423.922C67.167 417.628 68.9277 411.498 71.8678 405.913C74.8085 400.328 78.8666 395.407 83.789 391.457C88.712 387.507 94.3951 384.612 100.484 382.951L100.795 382.757C103.911 387.828 107.483 392.605 111.468 397.026Z" fill="#171717"/>
<path d="M302.844 267.784C304.954 268.429 307.105 268.927 309.283 269.277V269.285C318.441 270.751 327.826 269.619 336.371 266.015C336.55 265.944 336.728 265.864 336.906 265.787C339.918 264.459 343.106 262.315 344.115 259.371C344.34 258.728 344.453 258.049 344.446 257.367C344.415 252.967 339.752 250.263 335.682 248.604C325.982 244.645 315.455 241.367 305.159 243.299C297.225 244.79 290.109 249.339 284.664 255.334C283.836 256.246 283.047 257.195 282.302 258.166C276.631 265.539 273.185 274.409 271.001 283.438C270.107 287.138 269.222 291.197 266.248 293.561C263.96 295.378 260.914 295.806 258.05 296.357C257.085 296.544 256.121 296.753 255.166 296.992C252.319 297.681 249.524 298.566 246.799 299.642C238.649 302.791 231.212 307.541 224.929 313.613C218.645 319.684 213.642 326.953 210.215 334.991C206.788 343.029 205.007 351.672 204.977 360.41C204.947 369.147 206.669 377.803 210.04 385.863" stroke="#171717" stroke-width="2.25239" stroke-linecap="round" stroke-linejoin="round"/>
<path d="M344.295 259.432C349.051 265.604 349.537 274.372 346.802 281.665C346.498 282.478 346.147 283.273 345.751 284.046C342.5 290.484 336.119 296.581 330.502 300.658" stroke="#171717" stroke-width="2.25239" stroke-linecap="round" stroke-linejoin="round"/>
<path d="M209.666 386.584C209.796 386.348 209.925 386.105 210.048 385.869C215.16 376.361 220.269 366.858 225.375 357.361C225.916 356.358 226.464 355.339 227.036 354.335C229.731 349.597 232.918 345.048 237.74 342.697C242.805 340.227 248.395 340.718 254.098 341.492C258.889 342.151 263.766 343.011 268.47 342.486C276.718 341.574 284.131 336.241 288.487 329.183C289.791 327.075 290.729 324.761 291.263 322.34C291.721 320.228 291.954 318.073 291.96 315.912C291.95 312.678 291.777 309.446 291.444 306.229C308.775 302.17 310.76 283.841 309.174 269.887" stroke="#171717" stroke-width="2.25239" stroke-linecap="round" stroke-linejoin="round"/>
<path d="M330.504 300.658C330.607 300.566 330.702 300.466 330.804 300.366C335.127 296.214 337.435 290.261 338.076 284.292C338.735 278.179 337.764 272.013 336.376 266.029" stroke="#171717" stroke-width="2.25239" stroke-linecap="round" stroke-linejoin="round"/>
<path d="M332.866 277.281C332.622 276.785 332.25 276.363 331.788 276.057C331.327 275.752 330.792 275.575 330.24 275.544C329.688 275.514 329.137 275.631 328.645 275.883C328.153 276.136 327.736 276.515 327.439 276.981" stroke="#171717" stroke-width="1.5014" stroke-linecap="round" stroke-linejoin="round"/>
<path d="M317.804 277.302C317.626 276.854 317.323 276.469 316.93 276.191C316.538 275.913 316.073 275.755 315.592 275.736C315.098 275.689 314.601 275.777 314.153 275.991C313.705 276.205 313.324 276.536 313.05 276.95" stroke="#171717" stroke-width="1.5014" stroke-linecap="round" stroke-linejoin="round"/>
<path d="M324.154 284.82C324.205 284.974 324.287 285.115 324.398 285.233C324.508 285.351 324.643 285.444 324.793 285.504C325.089 285.647 325.406 285.716 325.705 285.859C326.028 286.014 326.308 286.245 326.521 286.533C326.734 286.821 326.873 287.157 326.927 287.511C326.98 287.865 326.946 288.227 326.827 288.565C326.708 288.903 326.508 289.206 326.245 289.449C325.982 289.692 325.663 289.867 325.317 289.958C324.97 290.049 324.607 290.054 324.258 289.973C323.909 289.891 323.586 289.725 323.316 289.489C323.046 289.254 322.838 288.956 322.71 288.622" stroke="#171717" stroke-width="1.5014" stroke-linecap="round" stroke-linejoin="round"/>
<path d="M318.45 297.592C318.204 297.917 317.872 298.166 317.492 298.312C317.112 298.457 316.698 298.492 316.299 298.414C315.495 298.242 314.789 297.769 314.324 297.091C313.867 296.42 313.549 295.664 313.389 294.869" stroke="#171717" stroke-width="1.5014" stroke-linecap="round" stroke-linejoin="round"/>
<path d="M330.76 300.322C328.435 301.898 326.512 303.998 325.146 306.453C323.781 308.909 323.01 311.65 322.897 314.457" stroke="#171717" stroke-width="2.25239" stroke-linecap="round" stroke-linejoin="round"/>
<path d="M292.682 315.919C302.748 315.439 312.82 314.954 322.897 314.463L328.994 314.17C329.954 314.126 331.066 314.139 331.705 314.861C332.275 315.516 332.237 316.494 332.161 317.359C332.047 318.653 331.933 319.94 331.819 321.233C331.8 321.764 331.69 322.287 331.493 322.78C331.401 322.986 331.27 323.173 331.107 323.329C330.504 323.905 329.569 323.904 328.731 323.87C316.353 323.388 303.974 322.903 291.595 322.415" stroke="#171717" stroke-width="2.25239" stroke-linecap="round" stroke-linejoin="round"/>
<path d="M331.102 322.76C331.23 322.764 331.366 322.776 331.494 322.781C341.385 323.284 351.221 321.01 359.888 316.216C368.556 311.422 375.709 304.299 380.54 295.653C386.678 284.672 388.651 272.103 389.434 259.418C389.714 254.77 389.843 250.12 389.95 245.515" stroke="#171717" stroke-width="2.25239" stroke-linecap="round" stroke-linejoin="round"/>
<path d="M370.82 357.475C381.133 357.29 389.404 351.023 396.421 343.462C407.942 331.063 414.737 314.872 418.296 298.325C420.847 286.441 421.829 274.306 422.302 262.138C422.347 261.086 422.39 260.027 422.42 258.967C422.547 255.254 422.63 251.542 422.704 247.831" stroke="#171717" stroke-width="2.25239" stroke-linecap="round" stroke-linejoin="round"/>
<path d="M389.879 245.357C389.909 245.357 389.931 245.363 389.961 245.363C391.345 245.46 392.722 245.557 394.106 245.648C403.078 246.275 412.055 246.898 421.037 247.518C421.571 247.551 422.098 247.592 422.633 247.625" stroke="#171717" stroke-width="2.25239" stroke-linecap="round" stroke-linejoin="round"/>
<path d="M255.179 340.725C254.816 340.973 254.454 341.229 254.099 341.491C244.855 348.193 237.449 357.56 233.558 368.272C233.216 369.195 232.906 370.126 232.629 371.064C228.967 383.303 231.024 399.815 237.281 410.984C237.312 411.041 237.344 411.103 237.375 411.162" stroke="#171717" stroke-width="2.25239" stroke-linecap="round" stroke-linejoin="round"/>
<path d="M394.124 245.375C391.636 242.752 389.37 239.927 387.35 236.928C386.26 235.458 385.46 233.794 384.996 232.024C384.897 231.526 384.85 231.019 384.857 230.51C384.984 228.449 385.875 226.509 387.356 225.07C388.365 224.06 389.499 223.181 390.73 222.457C391.255 222.13 391.789 221.818 392.331 221.513C392.798 221.247 393.274 220.989 393.748 220.738C395.714 219.628 397.823 218.792 400.016 218.255C401.15 217.947 402.345 217.938 403.484 218.231C404.051 218.387 404.562 218.698 404.96 219.13C405.358 219.562 405.628 220.097 405.739 220.673C405.749 220.763 405.758 220.844 405.76 220.935C405.79 222.28 404.749 223.443 403.749 224.382C401.989 226.045 400.133 227.603 398.192 229.049C397.202 229.793 396.075 230.759 396.254 231.984C396.449 232.703 396.862 233.344 397.437 233.82C399.521 235.989 401.234 238.489 402.505 241.216" stroke="#171717" stroke-width="2.25239" stroke-linecap="round" stroke-linejoin="round"/>
<path d="M393.746 220.753V220.737C393.789 219.662 393.841 218.579 393.884 217.505C394.253 208.794 394.619 200.082 394.984 191.371C394.974 190.36 395.111 189.353 395.39 188.381C395.532 187.895 395.776 187.444 396.103 187.058C396.431 186.672 396.836 186.358 397.292 186.138C398.892 185.472 400.794 186.556 401.631 188.076C402.468 189.595 402.516 191.413 402.548 193.147C402.6 196.526 402.655 199.9 402.713 203.273C402.747 205.119 402.774 206.976 402.807 208.82C402.846 210.466 403.22 212.087 403.906 213.583C404.591 215.08 405.575 216.421 406.796 217.525" stroke="#171717" stroke-width="2.25239" stroke-linecap="round" stroke-linejoin="round"/>
<path d="M421.86 233.824C422.095 233.833 422.33 233.805 422.557 233.741C423.593 233.417 424.177 232.338 424.567 231.315C425.794 228.068 426.106 224.553 426.224 221.073C426.299 218.698 426.289 216.265 425.533 214.014C424.679 211.45 421.011 206.568 418.476 210.425C417.914 211.449 417.584 212.584 417.508 213.75C417.283 215.468 417.098 217.214 417.009 218.966C416.904 220.883 416.949 222.805 417.144 224.715C417.373 226.841 417.907 228.924 418.732 230.898C419.039 231.718 419.52 232.462 420.14 233.081C420.615 233.512 421.22 233.773 421.86 233.824Z" stroke="#171717" stroke-width="2.25239" stroke-linecap="round" stroke-linejoin="round"/>
<path d="M417.144 224.715C417.201 223.156 417.178 221.595 417.077 220.038C417.054 219.685 417.031 219.325 417.008 218.966C416.787 216.125 416.302 213.252 414.829 210.829C413.918 209.325 412.286 207.928 410.568 208.311C410.048 208.462 409.568 208.729 409.165 209.092C408.762 209.455 408.446 209.904 408.241 210.406C407.849 211.415 407.618 212.479 407.553 213.56C407.418 214.876 407.297 216.208 407.222 217.548C407.156 218.676 407.122 219.803 407.146 220.929C407.116 223.97 407.639 226.991 408.689 229.845C409.13 231.161 409.892 232.347 410.906 233.295C411.794 234.048 413.653 234.931 414.691 233.999C415.567 233.213 416.025 231.198 416.332 230.118C416.817 228.356 417.09 226.542 417.144 224.715Z" stroke="#171717" stroke-width="2.25239" stroke-linecap="round" stroke-linejoin="round"/>
<path d="M421.86 233.846C421.593 238.404 421.32 242.961 421.038 247.516C421.038 247.592 421.034 247.666 421.028 247.741" stroke="#171717" stroke-width="2.25239" stroke-linecap="round" stroke-linejoin="round"/>
<path d="M318.858 428.334C318.744 428.367 318.641 428.406 318.529 428.44C301.126 433.966 293.692 432.974 285.674 429.338C282.351 427.835 278.928 425.869 274.653 423.726C272.162 422.483 269.393 421.177 266.186 419.859C264.89 419.325 263.587 418.799 262.283 418.264C261.48 417.944 260.669 417.624 259.867 417.303C253.859 414.937 247.767 412.812 241.439 411.616C240.067 411.354 238.673 411.145 237.28 410.981C234.729 410.685 232.159 410.585 229.592 410.679C224.843 410.81 220.163 411.848 215.803 413.734C212.546 415.188 209.583 417.227 207.062 419.75C203.334 423.355 200.875 428.07 200.053 433.189C199.795 435.039 199.768 436.915 199.975 438.771C200.444 442.797 201.743 446.683 203.789 450.182C206.727 455.314 210.893 459.628 215.356 463.501C229.253 475.544 228.273 476.062 245.08 483.512" stroke="#171717" stroke-width="2.25239" stroke-linecap="round" stroke-linejoin="round"/>
<path d="M296.184 485.092C296.044 484.562 295.899 484.077 295.808 483.711C295.109 480.994 293.065 478.591 290.475 476.914C289.124 476.055 287.683 475.347 286.177 474.802C286.048 474.753 285.92 474.703 285.792 474.66C282.975 473.711 280.079 473.014 277.139 472.578C273.02 471.803 268.827 471.486 264.638 471.633C260.422 471.869 256.158 472.858 252.652 474.919C249.146 476.979 246.484 480.161 245.99 483.636C245.885 484.354 245.888 485.083 246.001 485.799C246.201 487.195 246.934 488.46 248.047 489.327C249.659 490.56 251.978 490.944 254.193 491.165C258.212 491.571 262.284 491.621 266.347 491.674C273.55 491.777 280.792 491.87 288.008 491.215C289.184 491.106 290.994 491.08 292.654 490.796C294.285 490.519 295.767 489.99 296.367 488.903C296.872 487.99 296.543 486.391 296.184 485.092Z" stroke="#171717" stroke-width="2.25239" stroke-linecap="round" stroke-linejoin="round"/>
<path d="M286.234 474.651C295.277 462.96 301.472 444.755 311.84 434.221C313.294 432.746 316 430.906 319.577 428.949C327.134 424.933 335.064 421.661 343.254 419.178C349.839 417.084 356.612 415.631 363.477 414.837C366.239 414.535 369.019 414.425 371.796 414.509C378.958 414.762 386.383 417.023 391.319 422.221C398.01 429.274 398.549 440.03 398.165 449.742C397.9 456.371 397.373 463.059 395.381 469.389C395.017 470.553 394.599 471.704 394.121 472.834C393.436 474.483 392.626 476.078 391.697 477.604C389.835 480.725 387.369 483.443 384.442 485.598C383.887 486.001 383.318 486.374 382.74 486.717C378.991 488.986 374.746 490.237 370.346 490.966C367.051 491.481 363.729 491.811 360.396 491.954C339.381 493.083 316.399 492.266 292.694 491.03" stroke="#171717" stroke-width="2.25239" stroke-linecap="round" stroke-linejoin="round"/>
<path d="M262.312 418.197L276.569 346.323" stroke="#171717" stroke-width="2.25239" stroke-linecap="round" stroke-linejoin="round"/>
<path d="M372.778 342.233L276.569 346.323" stroke="#171717" stroke-width="2.25239" stroke-linecap="round" stroke-linejoin="round"/>
<path d="M363.429 414.358L368.075 378.526L370.804 357.476L372.777 342.233" stroke="#171717" stroke-width="2.25239" stroke-linecap="round" stroke-linejoin="round"/>
<path d="M274.053 423.769L274.653 423.726L343.213 419.044" stroke="#171717" stroke-width="2.25239" stroke-linecap="round" stroke-linejoin="round"/>
<path d="M285.487 429.341L285.675 429.337L318.53 428.439L319.393 428.412" stroke="#171717" stroke-width="2.25239" stroke-linecap="round" stroke-linejoin="round"/>
<path d="M372.777 342.233L367.779 340.047" stroke="#171717" stroke-width="2.25239" stroke-linecap="round" stroke-linejoin="round"/>
<path d="M276.569 346.323L274.233 344.61" stroke="#171717" stroke-width="2.25239" stroke-linecap="round" stroke-linejoin="round"/>
<path d="M367.78 340.047L274.233 344.61" stroke="#171717" stroke-width="2.25239" stroke-linecap="round" stroke-linejoin="round"/>
<path d="M259.909 417.192L274.233 344.61" stroke="#171717" stroke-width="2.25239" stroke-linecap="round" stroke-linejoin="round"/>
<path d="M368.015 378.564C368.038 378.548 368.052 378.541 368.072 378.525C380.551 369.942 395.215 365.92 410.219 367.973C425.246 370.024 439.466 378.983 446.65 392.347C453.685 405.436 453.383 422.189 445.875 435.025C454.093 427.091 467.976 426.985 477.567 433.177C487.159 439.37 492.661 450.653 493.942 462C495.224 473.348 492.746 484.81 489.181 495.657" stroke="#171717" stroke-width="2.25239" stroke-linecap="round" stroke-linejoin="round"/>
<path d="M229.591 410.62C216.669 401.973 201.443 389.367 187.492 375.191C184.803 372.465 182.175 369.685 179.61 366.851C168.439 354.538 158.648 341.449 152.363 329.003C151.083 326.479 149.957 323.986 148.982 321.525C144.889 311.127 141.841 300.349 139.883 289.348C135.809 266.595 136.4 243.252 141.621 220.734C162.364 227.6 181.197 238.002 198.254 250.951C212.652 261.871 225.791 274.597 237.764 288.532C240.832 292.098 243.819 295.738 246.725 299.454" stroke="#171717" stroke-width="2.25239" stroke-linecap="round" stroke-linejoin="round"/>
<path d="M111.467 397.027C107.483 392.605 103.911 387.828 100.795 382.756C75.2921 341.919 64.6797 273.123 64.1162 263.366C84.6384 268.256 104.759 274.698 124.305 282.637C129.541 284.764 134.735 287.002 139.885 289.349C140.136 289.456 140.386 289.57 140.636 289.685" stroke="#171717" stroke-width="2.25239" stroke-linecap="round" stroke-linejoin="round"/>
<path d="M199.124 438.866C186.36 438.94 173.149 435.495 162.436 431.529C156.558 429.372 150.837 426.807 145.316 423.853" stroke="#171717" stroke-width="2.25239" stroke-linecap="round" stroke-linejoin="round"/>
<path d="M198.656 250.431C201.992 244.8 205.326 239.171 208.657 233.546C210.525 230.403 212.392 227.255 214.258 224.102C214.556 223.6 214.852 223.097 215.149 222.595" stroke="#171717" stroke-width="2.25239" stroke-linecap="round" stroke-linejoin="round"/>
<path d="M58.2253 486.882C75.7253 457.144 93.7877 427.149 111.719 397.178C121.984 380.016 132.168 362.878 142.27 345.764C143.86 343.064 145.445 340.364 147.023 337.668C148.68 334.839 150.332 332.013 151.98 329.193" stroke="#171717" stroke-width="2.25239" stroke-linecap="round" stroke-linejoin="round"/>
<path d="M105.88 486.616L144.707 423.476L162.164 395.077L172.113 378.906L179.41 367.036" stroke="#171717" stroke-width="2.25239" stroke-linecap="round" stroke-linejoin="round"/>
<path d="M384.723 232.083C377.481 244.417 369.476 255.86 362.255 268.786C357.885 274.891 354.249 280.228 350.677 286.361" stroke="#171717" stroke-width="2.25239" stroke-linecap="round" stroke-linejoin="round"/>
<path d="M393.919 217.453C393.904 217.468 393.897 217.492 393.883 217.506C392.716 219.081 391.662 220.735 390.727 222.458C390.67 222.557 390.619 222.663 390.569 222.762" stroke="#171717" stroke-width="2.25239" stroke-linecap="round" stroke-linejoin="round"/>
<path d="M428.226 162.719C419.467 176.04 411.011 189.558 402.856 203.271" stroke="#171717" stroke-width="2.25239" stroke-linecap="round" stroke-linejoin="round"/>
<path d="M345.752 284.046C347.399 284.819 349.041 285.592 350.678 286.362" stroke="#171717" stroke-width="2.25239" stroke-linecap="round" stroke-linejoin="round"/>
<path d="M215.149 222.595C238.312 233.25 261.831 243.992 284.58 255.259" stroke="#171717" stroke-width="2.25239" stroke-linecap="round" stroke-linejoin="round"/>
<path d="M237.824 288.479L255.098 296.707" stroke="#171717" stroke-width="2.25239" stroke-linecap="round" stroke-linejoin="round"/>
<path d="M422.453 262.143L464.796 186.287" stroke="#171717" stroke-width="2.25239" stroke-linecap="round" stroke-linejoin="round"/>
<path d="M428.226 162.719L392.519 142.136" stroke="#171717" stroke-width="2.25239" stroke-linecap="round" stroke-linejoin="round"/>
<path d="M464.796 186.287L500.569 209.871" stroke="#171717" stroke-width="2.25239" stroke-linecap="round" stroke-linejoin="round"/>
<path d="M494.075 84.9194L392.519 142.136" stroke="#171717" stroke-width="2.25239" stroke-linecap="round" stroke-linejoin="round"/>
<path d="M500.569 209.871L494.075 84.9194" stroke="#171717" stroke-width="2.25239" stroke-linecap="round" stroke-linejoin="round"/>
<path d="M290.688 99.1444C279.577 102.741 269.977 110.547 263.776 120.44C260.158 126.22 257.619 132.907 257.908 139.727C258.179 146.194 260.991 152.379 264.979 157.479C274.417 169.569 290.857 175.758 305.924 172.891C320.991 170.024 334.015 158.247 338.356 143.527C342.07 130.964 339.543 112.908 329.353 103.674C320.191 95.374 301.617 95.6082 290.688 99.1444Z" stroke="#171717" stroke-width="2.25239" stroke-linecap="round" stroke-linejoin="round"/>
<path d="M325.72 119.408C322.978 119.966 320.529 121.495 318.825 123.714C317.216 125.973 316.723 129.092 317.935 131.581C319.147 134.069 322.222 135.615 324.862 134.768C327.501 133.92 329.062 130.484 327.679 128.082" stroke="#171717" stroke-width="2.25239" stroke-linecap="round" stroke-linejoin="round"/>
<path d="M299.522 117.116C300.275 116.423 301.231 115.99 302.249 115.88C303.266 115.771 304.292 115.991 305.175 116.509C306.059 117.026 306.752 117.813 307.155 118.754C307.558 119.695 307.648 120.741 307.412 121.737C307.175 122.733 306.626 123.627 305.844 124.287C305.061 124.947 304.088 125.339 303.066 125.405C302.045 125.471 301.029 125.207 300.169 124.653C299.309 124.098 298.649 123.282 298.287 122.325" stroke="#171717" stroke-width="2.25239" stroke-linecap="round" stroke-linejoin="round"/>
<path d="M283.671 136.708C288.866 137.291 292.549 143.517 290.569 148.344C288.589 153.171 281.586 155.017 277.488 151.782C273.385 148.554 273.537 141.32 277.765 138.259" stroke="#171717" stroke-width="2.25239" stroke-linecap="round" stroke-linejoin="round"/>
<path d="M314.408 156.643C316.74 156.814 318.462 159.601 317.578 161.762C316.695 163.922 313.507 164.706 311.724 163.191C309.941 161.677 310.19 158.405 312.183 157.18" stroke="#171717" stroke-width="2.25239" stroke-linecap="round" stroke-linejoin="round"/>
<path d="M424.643 83.5172C428.107 80.2859 427.368 73.7316 423.275 71.3527C419.183 68.9739 413.113 71.5943 412.037 76.2136C413.205 69.2793 413.131 61.6218 409.091 55.8616C405.051 50.1016 395.948 47.6247 390.804 52.4252C386.522 56.4251 386.719 63.2321 387.936 68.9721C386.817 63.5979 380.956 59.7113 375.571 60.7774C370.186 61.8435 366.248 67.6679 367.27 73.0598C363.615 72.1653 359.55 71.3778 356.265 73.208C350.346 76.5014 353.675 81.0141 358.112 81.9674C365.107 83.4637 373.739 82.3326 380.904 82.495C388.297 82.6688 395.692 82.842 403.091 83.0147C406.506 83.095 422.377 85.6249 424.643 83.5172Z" stroke="#171717" stroke-width="2.25239" stroke-linecap="round" stroke-linejoin="round"/>
<path d="M179.285 135.701C183.387 135.53 187.641 135.32 191.294 133.436C194.947 131.552 197.823 127.493 196.975 123.472C196.067 119.159 191.204 116.602 186.803 116.881C182.401 117.16 178.452 119.568 174.859 122.11C180.746 116.362 181.631 106.213 176.826 99.5313C172.022 92.8494 162.126 90.4574 154.796 94.21C147.466 97.9627 143.631 107.398 146.245 115.202C142.959 106.917 132.176 102.569 124.058 106.265C115.94 109.96 112.138 120.941 116.227 128.862C113.284 130.272 109.855 130.033 106.592 129.888C102.338 129.697 90.8423 131.793 97.1744 137.246C101.944 141.353 115.267 138.382 120.773 138.155L179.285 135.701Z" stroke="#171717" stroke-width="2.25239" stroke-linecap="round" stroke-linejoin="round"/>
<path d="M100.482 382.951C94.3927 384.612 88.7102 387.507 83.7872 391.457C78.8642 395.408 74.8067 400.328 71.866 405.913C68.9253 411.498 67.1646 417.628 66.694 423.922C66.2233 430.217 67.0518 436.54 69.1287 442.501C64.2741 440.847 59.1146 440.282 54.0174 440.847C48.9199 441.413 44.0094 443.093 39.635 445.771C35.2606 448.448 31.5296 452.056 28.7071 456.338C25.8845 460.621 24.0398 465.472 23.3041 470.548C22.5884 475.497 23.2408 481.189 27.1034 484.355C30.4003 487.06 35.0435 487.159 39.3078 487.125C45.5995 487.074 51.9061 487.029 58.2275 486.988C74.0546 486.874 89.9392 486.778 105.882 486.699L119.164 486.628C161.353 486.408 203.679 486.216 245.401 485.894" stroke="#171717" stroke-width="2.25239" stroke-linecap="round" stroke-linejoin="round"/>
<path d="M370.093 490.954C370.175 490.96 370.264 490.958 370.348 490.963C382.585 491.463 394.823 491.959 407.064 492.449C434.438 493.567 461.809 494.678 489.177 495.785C500.94 496.259 512.702 496.735 524.465 497.214" stroke="#171717" stroke-width="2.25239" stroke-linecap="round" stroke-linejoin="round"/>
<path d="M205.957 174.748L209.643 181.815L217.55 182.787L211.97 188.476L213.496 196.296L206.359 192.746L199.385 196.612L200.562 188.73L194.733 183.296L202.589 181.972L205.957 174.748Z" stroke="#171717" stroke-width="2.25239" stroke-linecap="round" stroke-linejoin="round"/>
<path d="M335.431 164.923L337.667 169.213L342.462 169.797L339.078 173.253L340.003 178L335.674 175.843L331.439 178.191L332.15 173.406L328.615 170.106L333.381 169.308L335.431 164.923Z" stroke="#FFED88" stroke-width="2.25239" stroke-linecap="round" stroke-linejoin="round"/>
<path d="M386.379 136.176L390.655 155.199L409.85 158.624L390.827 162.899L387.402 182.095L383.126 163.071L363.931 159.647L382.955 155.37L386.379 136.176Z" stroke="#171717" stroke-width="2.25239" stroke-linecap="round" stroke-linejoin="round"/>
<path d="M166.796 153.176L170.088 167.79L184.835 170.421L170.22 173.712L167.583 188.459L164.298 173.845L149.55 171.206L164.166 167.923L166.796 153.176Z" stroke="#171717" stroke-width="2.25239" stroke-linecap="round" stroke-linejoin="round"/>
<path d="M353.506 223.228C351.953 221.901 350.523 220.438 349.233 218.855C348.201 217.609 347.26 216.289 346.419 214.907" stroke="#FFED88" stroke-width="2.25239" stroke-linecap="round" stroke-linejoin="round"/>
<path d="M346.112 223.655C347.065 222 348.107 220.397 349.234 218.855C350.072 217.687 350.963 216.564 351.899 215.469" stroke="#FFED88" stroke-width="2.25239" stroke-linecap="round" stroke-linejoin="round"/>
<path d="M238.492 139.909C237.414 138.264 236.174 136.732 234.788 135.336C233.746 134.269 232.622 133.284 231.426 132.392" stroke="#FFED88" stroke-width="2.25239" stroke-linecap="round" stroke-linejoin="round"/>
<path d="M231.258 139.485C233.948 136.818 236.144 133.696 237.743 130.262" stroke="#FFED88" stroke-width="2.25239" stroke-linecap="round" stroke-linejoin="round"/>
<path d="M117.615 244.339C115.512 242.629 113.412 240.921 111.313 239.214C109.814 237.994 108.323 236.773 106.824 235.56" stroke="#171717" stroke-width="2.25239" stroke-linecap="round" stroke-linejoin="round"/>
<path d="M107.423 245.602C108.72 243.471 110.016 241.342 111.313 239.215C112.95 236.529 114.587 233.844 116.225 231.161" stroke="#171717" stroke-width="2.25239" stroke-linecap="round" stroke-linejoin="round"/>
<path d="M464.731 337.351C463.095 335.007 461.458 332.668 459.822 330.334C458.177 327.976 456.527 325.617 454.873 323.259" stroke="#171717" stroke-width="2.25239" stroke-linecap="round" stroke-linejoin="round"/>
<path d="M454.187 336.61C456.071 334.518 457.949 332.426 459.822 330.335C461.705 328.243 463.584 326.153 465.457 324.067" stroke="#171717" stroke-width="2.25239" stroke-linecap="round" stroke-linejoin="round"/>
<path d="M482.955 418.053C482.108 416.773 481.253 415.493 480.414 414.213C479.061 412.185 477.714 410.155 476.373 408.122" stroke="#171717" stroke-width="2.25239" stroke-linecap="round" stroke-linejoin="round"/>
<path d="M476.088 419.265L480.413 414.213C481.898 412.474 483.384 410.737 484.87 408.999" stroke="#171717" stroke-width="2.25239" stroke-linecap="round" stroke-linejoin="round"/>
<path d="M70.4644 366.289C68.8433 364.069 66.9881 362.031 64.93 360.21C63.6069 359.027 62.2001 357.941 60.7198 356.962" stroke="#FFED88" stroke-width="2.25239" stroke-linecap="round" stroke-linejoin="round"/>
<path d="M60.7426 366.731C62.1363 364.56 63.5317 362.386 64.93 360.21C65.8662 358.755 66.7949 357.308 67.7317 355.852" stroke="#FFED88" stroke-width="2.25239" stroke-linecap="round" stroke-linejoin="round"/>
<path d="M287.066 238.481C285.688 236.995 284.316 235.506 282.949 234.014C281.602 232.558 280.256 231.109 278.916 229.652" stroke="#171717" stroke-width="2.25239" stroke-linecap="round" stroke-linejoin="round"/>
<path d="M279.094 237.6C280.504 236.546 281.797 235.344 282.949 234.014C284.282 232.478 285.415 230.78 286.321 228.961" stroke="#171717" stroke-width="2.25239" stroke-linecap="round" stroke-linejoin="round"/>
<path d="M320.414 376.869C319.29 378.072 318.482 379.535 318.061 381.126C317.218 383.751 316.819 386.741 318.142 389.152C320.052 392.668 325.264 393.476 328.604 391.269C330.088 390.247 331.222 388.794 331.853 387.106C332.484 385.419 332.582 383.578 332.133 381.833C330.917 377.438 324.413 373.043 320.414 376.869Z" stroke="#FFED88" stroke-width="2.25239" stroke-linecap="round" stroke-linejoin="round"/>
<path d="M394.063 472.841C394.083 472.834 394.103 472.83 394.124 472.831C398.93 471.838 403.365 474.028 406.269 478.005C407.703 480.026 408.54 482.41 408.684 484.884C408.828 487.359 408.274 489.824 407.084 491.999" stroke="#171717" stroke-width="2.25239" stroke-linecap="round" stroke-linejoin="round"/>
<path d="M280.629 485.664C281.78 482.04 281.468 478.111 279.762 474.713" stroke="#171717" stroke-width="2.25239" stroke-linecap="round" stroke-linejoin="round"/>
<path d="M271.878 486.174C271.905 486.099 271.928 486.024 271.947 485.946C273.202 482.138 272.984 477.998 271.335 474.343" stroke="#171717" stroke-width="2.25239" stroke-linecap="round" stroke-linejoin="round"/>
<path d="M262.69 485.674C263.735 482.127 263.55 478.332 262.165 474.905" stroke="#171717" stroke-width="2.25239" stroke-linecap="round" stroke-linejoin="round"/>
<path d="M285.75 474.789C283.754 474.867 281.754 474.832 279.762 474.683C277.071 474.512 274.189 474.243 271.354 474.082C268.263 473.835 265.155 473.892 262.076 474.252C261.582 474.324 261.096 474.409 260.625 474.51C258.645 474.852 256.835 475.84 255.476 477.321C254.204 478.851 253.744 481.159 254.729 482.887C256.089 485.259 259.311 485.616 262.039 485.698C262.256 485.708 262.474 485.71 262.693 485.713C265.781 485.81 268.87 485.899 271.949 485.95C274.849 486.007 277.748 486.031 280.638 485.996C285.698 485.944 290.747 485.726 295.774 485.199" stroke="#171717" stroke-width="2.25239" stroke-linecap="round" stroke-linejoin="round"/>
<path d="M391.588 477.664C391.623 477.64 391.66 477.619 391.699 477.602C392.85 477.036 394.165 476.9 395.408 477.219C395.879 477.319 396.333 477.489 396.756 477.721C397.467 478.134 398.057 478.729 398.465 479.444C398.873 480.158 399.084 480.969 399.077 481.792C399.005 483.198 398.401 484.523 397.388 485.501C396.379 486.469 395.162 487.192 393.831 487.615C391.77 488.317 389.573 488.526 387.417 488.224C385.779 488.013 384.195 487.501 382.744 486.714C382.718 486.705 382.692 486.693 382.669 486.678" stroke="#171717" stroke-width="2.25239" stroke-linecap="round" stroke-linejoin="round"/>
<path d="M387.321 488.369C387.351 488.319 387.382 488.271 387.416 488.224C389.774 484.518 392.438 481.015 395.378 477.752" stroke="#171717" stroke-width="2.25239" stroke-linecap="round" stroke-linejoin="round"/>
<path d="M142.3 345.802C142.292 345.787 142.276 345.78 142.269 345.766C136.982 340.026 131.589 334.229 126.166 328.463C120.175 322.093 114.139 315.747 108.166 309.55" stroke="#171717" stroke-width="2.25239" stroke-linecap="round" stroke-linejoin="round"/>
<path d="M206.688 419.076C199.575 410.583 192.401 402.15 185.166 393.777C180.881 388.827 176.578 383.899 172.258 378.994" stroke="#171717" stroke-width="2.25239" stroke-linecap="round" stroke-linejoin="round"/>
<path d="M213.9 326.754C210.744 320.638 207.482 314.571 204.115 308.552C198.405 298.317 192.406 288.25 186.117 278.353C183.252 273.836 180.327 269.355 177.34 264.911C173.572 259.304 169.716 253.757 165.773 248.274" stroke="#171717" stroke-width="2.25239" stroke-linecap="round" stroke-linejoin="round"/>
<path d="M233.399 368.213C231.449 363.623 229.44 359.059 227.371 354.522" stroke="#171717" stroke-width="2.25239" stroke-linecap="round" stroke-linejoin="round"/>
<path d="M186.115 278.375C186.115 278.367 186.115 278.36 186.115 278.352C186.143 270.226 186.17 262.103 186.195 253.984" stroke="#171717" stroke-width="2.25239" stroke-linecap="round" stroke-linejoin="round"/>
<path d="M204.099 309.056C204.103 308.891 204.106 308.718 204.11 308.553C204.368 297.171 204.625 285.791 204.881 274.413" stroke="#171717" stroke-width="2.25239" stroke-linecap="round" stroke-linejoin="round"/>
<path d="M226.581 312.023C226.986 307.929 227.335 303.829 227.628 299.722" stroke="#171717" stroke-width="2.25239" stroke-linecap="round" stroke-linejoin="round"/>
<path d="M206.475 345.174C198.992 345.934 191.507 346.691 184.02 347.446" stroke="#171717" stroke-width="2.25239" stroke-linecap="round" stroke-linejoin="round"/>
<path d="M203.947 308.585C193.357 308.168 182.436 307.36 171.84 307.349" stroke="#171717" stroke-width="2.25239" stroke-linecap="round" stroke-linejoin="round"/>
<path d="M185.975 278.176C173.974 275.099 161.492 271.656 149.491 268.582" stroke="#171717" stroke-width="2.25239" stroke-linecap="round" stroke-linejoin="round"/>
<path d="M126.437 328.779C114.391 324.467 102.108 320.85 89.6476 317.944" stroke="#171717" stroke-width="2.25239" stroke-linecap="round" stroke-linejoin="round"/>
<path d="M126.168 328.515C126.168 328.5 126.168 328.477 126.168 328.463C125.229 318.253 124.913 307.996 125.221 297.748" stroke="#171717" stroke-width="2.25239" stroke-linecap="round" stroke-linejoin="round"/>
<path d="M137.307 353.932C128.859 354.308 120.408 354.447 111.951 354.347" stroke="#171717" stroke-width="2.25239" stroke-linecap="round" stroke-linejoin="round"/>
<path d="M185.147 393.911C177.546 394.246 169.951 394.723 162.355 395.193" stroke="#171717" stroke-width="2.25239" stroke-linecap="round" stroke-linejoin="round"/>
<path d="M185.147 393.912C185.153 393.867 185.159 393.821 185.166 393.776C185.944 387.579 186.72 381.383 187.493 375.191C187.505 375.048 187.524 374.913 187.544 374.769" stroke="#171717" stroke-width="2.25239" stroke-linecap="round" stroke-linejoin="round"/>
<path d="M147.022 337.685V337.669C146.756 332.142 146.332 326.609 145.744 321.109" stroke="#171717" stroke-width="2.25239" stroke-linecap="round" stroke-linejoin="round"/>
<path d="M162.266 431.984C155.15 433.021 148.707 436.764 144.28 442.432C139.854 448.101 137.784 455.258 138.501 462.414C135.384 461.788 132.155 462.029 129.165 463.111C126.175 464.193 123.539 466.075 121.545 468.551C119.55 471.027 118.273 474.003 117.853 477.154C117.432 480.307 117.885 483.513 119.16 486.426" stroke="#171717" stroke-width="2.25239" stroke-linecap="round" stroke-linejoin="round"/>
<path d="M389.569 259.43C400.342 259.264 411.117 259.104 421.893 258.949" stroke="#171717" stroke-width="2.25239" stroke-linecap="round" stroke-linejoin="round"/>
<g opacity="0.1">
<path d="M137.177 222.81C133.193 237.562 133.941 254.081 135.59 269.138C140.258 313.343 160.399 354.476 192.456 385.269C198.071 390.687 204.073 395.689 210.415 400.235C213.572 402.591 216.927 404.669 220.443 406.446C224.059 408.174 227.301 410.712 231.257 411.584C232.082 411.786 232.949 411.716 233.73 411.384C234.511 411.052 235.164 410.477 235.591 409.743C236.018 409.01 236.196 408.158 236.099 407.315C236.002 406.472 235.634 405.683 235.052 405.066C232.807 402.551 229.84 401.168 227.293 399.026C224.763 396.9 222.232 394.786 219.657 392.711C214.472 388.533 209.364 384.217 204.487 379.677C195.068 370.949 186.592 361.253 179.201 350.751C162.985 327.584 152.665 300.959 148.467 273.013C147.324 265.201 146.711 257.32 146.632 249.424C146.518 240.996 147.27 232.584 147.202 224.162C147.156 218.45 138.7 217.185 137.181 222.806L137.177 222.81Z" fill="#171717"/>
</g>
<g opacity="0.1">
<path d="M257.02 338.153C250.561 340.418 245.362 347.048 241.591 352.529C237.568 358.561 234.68 365.275 233.067 372.343C229.438 387.914 231.645 404.273 239.27 418.326C243.074 425.347 253.724 419.108 249.97 412.071C243.971 400.823 241.765 387.54 244.479 375.022C246.606 366.411 250.391 358.298 255.622 351.135C257.532 348.674 259.815 346.417 261.243 343.646C262.625 340.964 260.294 337.004 257.02 338.153Z" fill="#171717"/>
</g>
<g opacity="0.1">
<path d="M372.586 358.349C379.758 357.21 386.524 352.245 391.923 347.617C397.572 342.693 402.462 336.96 406.435 330.606C415.594 316.19 419.78 299.335 421.203 282.459C422.071 272.158 421.902 261.769 421.42 251.452C421.171 246.123 412.753 246.153 413.14 251.452C414.691 272.659 414.188 294.974 405.806 314.866C402.412 323.039 397.599 330.547 391.592 337.044C388.639 340.237 385.35 343.1 381.779 345.583C378.027 348.152 373.908 350.028 370.116 352.492C366.934 354.561 369.068 358.909 372.586 358.349Z" fill="#171717"/>
</g>
<g opacity="0.1">
<path d="M293.199 314.72C294.505 313.053 295.485 311.316 297.045 309.843C298.465 308.502 300.039 307.344 301.531 306.087C304.818 303.362 307.535 300.014 309.525 296.236C313.434 288.663 314.772 279.417 312.164 271.211C310.871 267.144 304.85 268.805 305.777 272.972C307.508 280.759 306.429 288.581 302.073 295.343C299.965 298.615 297.112 300.959 294.29 303.574C291.698 305.976 288.677 309.091 288.703 312.861C288.717 314.934 291.723 316.604 293.195 314.722L293.199 314.72Z" fill="#171717"/>
</g>
<g opacity="0.1">
<path d="M121.285 485.605C121.11 480.737 122.983 476.631 127.229 474.026C130.88 471.786 134.715 470.735 138.842 472.263C142.402 473.582 145.873 470.212 145.964 466.836C146.148 460.169 148.15 454.699 151.692 449.08C154.981 443.863 160.539 441.672 164.732 437.466C166.925 435.265 165.154 431.984 162.357 431.733C154.921 431.067 147.353 437.479 142.765 442.741C137.205 449.118 134.32 458.417 134.707 466.836L141.83 461.408C134.623 459.971 126.339 461.144 121.287 467.01C116.992 471.998 115.75 479.831 117.713 486.088C118.306 487.979 121.36 487.725 121.281 485.605H121.285Z" fill="#171717"/>
</g>
<g opacity="0.1">
<path d="M296.696 96.3323C289.146 98.2759 282.01 101.568 275.631 106.051C268.591 111.008 262.721 116.82 259.191 124.836C255.304 133.664 254.789 142.774 258.802 151.637C262.241 159.236 268.928 164.078 276.112 167.846C280.503 170.149 286.018 171.275 290.877 172.223C295.655 173.154 300.646 173.542 305.464 172.762C307.401 172.448 306.847 169.938 305.464 169.362C303.253 168.442 300.913 168.123 298.812 167.088C296.83 166.112 294.405 165.866 292.302 165.199C287.502 163.676 283.607 161.281 279.46 158.497C276.353 156.411 273.951 152.87 272.014 149.718C270.128 146.647 268.612 143.592 268.286 139.965C267.431 130.43 272.906 122.861 277.445 115.049C281.906 107.374 289.71 102.177 297.686 98.6759C299.05 98.0764 298.059 95.9916 296.698 96.3323H296.696Z" fill="#171717"/>
</g>
</g>
</svg>
