<svg width="208" height="37" viewBox="0 0 208 37" fill="none" xmlns="http://www.w3.org/2000/svg">
<path fill-rule="evenodd" clip-rule="evenodd" d="M18.1912 36.5C28.1323 36.5 36.1912 28.4411 36.1912 18.5C36.1912 8.55888 28.1323 0.5 18.1912 0.5C8.25003 0.5 0.191162 8.55888 0.191162 18.5C0.191162 28.4411 8.25003 36.5 18.1912 36.5ZM23.8066 8.88516C24.0799 7.91425 23.1377 7.34012 22.2772 7.95317L10.265 16.5106C9.33177 17.1755 9.47856 18.5 10.4855 18.5H13.6486V18.4755H19.8134L14.7903 20.2479L12.5758 28.1149C12.3025 29.0858 13.2446 29.6599 14.1052 29.0468L26.1174 20.4894C27.0506 19.8246 26.9037 18.5 25.8969 18.5H21.1001L23.8066 8.88516Z" fill="black"/>
<path d="M58.009 29.5V6.90522H62.6843V15.5201H71.5137V6.90522H76.2044V29.5H71.5137V19.4136H62.6843V29.5H58.009ZM87.8696 26.4189C89.1471 26.4189 90.1281 25.9641 90.8128 25.0546C91.4975 24.1451 91.8398 22.8524 91.8398 21.1764C91.8398 19.5005 91.4975 18.2128 90.8128 17.3135C90.1281 16.404 89.1471 15.9493 87.8696 15.9493C86.5922 15.9493 85.6061 16.404 84.9112 17.3135C84.2265 18.2128 83.8841 19.5005 83.8841 21.1764C83.8841 22.8524 84.2265 24.1451 84.9112 25.0546C85.6061 25.9641 86.5922 26.4189 87.8696 26.4189ZM96.4232 21.1764C96.4232 23.629 95.718 25.7291 94.3078 27.4766C92.8975 29.2139 90.7566 30.0825 87.885 30.0825C85.0134 30.0825 82.8724 29.2139 81.4622 27.4766C80.0519 25.7291 79.3468 23.629 79.3468 21.1764C79.3468 18.7647 80.0519 16.6748 81.4622 14.9069C82.8724 13.139 85.0134 12.255 87.885 12.255C90.7566 12.255 92.8975 13.139 94.3078 14.9069C95.718 16.6748 96.4232 18.7647 96.4232 21.1764ZM102.969 24.1655C103.061 24.9422 103.26 25.4941 103.566 25.8211C104.108 26.4036 105.11 26.6948 106.571 26.6948C107.429 26.6948 108.109 26.5671 108.61 26.3116C109.121 26.0561 109.376 25.6729 109.376 25.1619C109.376 24.6714 109.172 24.2984 108.763 24.0429C108.354 23.7874 106.837 23.348 104.21 22.7246C102.32 22.2545 100.986 21.6669 100.209 20.9618C99.4327 20.2669 99.0444 19.2654 99.0444 17.9573C99.0444 16.4142 99.6473 15.0908 100.853 13.9872C102.069 12.8733 103.776 12.3163 105.973 12.3163C108.058 12.3163 109.754 12.7353 111.062 13.5733C112.381 14.401 113.137 15.8369 113.331 17.8807H108.962C108.901 17.3186 108.742 16.8741 108.487 16.5471C108.007 15.9544 107.189 15.658 106.034 15.658C105.084 15.658 104.404 15.8062 103.996 16.1026C103.597 16.3989 103.398 16.7464 103.398 17.1449C103.398 17.6457 103.612 18.0084 104.042 18.2333C104.471 18.4683 105.988 18.872 108.594 19.4442C110.332 19.853 111.635 20.4713 112.503 21.299C113.362 22.137 113.791 23.1845 113.791 24.4415C113.791 26.097 113.173 27.451 111.936 28.5036C110.71 29.546 108.809 30.0672 106.234 30.0672C103.607 30.0672 101.666 29.5153 100.409 28.4116C99.1619 27.2977 98.5386 25.8824 98.5386 24.1655H102.969ZM115.324 16.0566V12.9448H117.654V8.28482H121.976V12.9448H124.69V16.0566H121.976V24.886C121.976 25.5707 122.063 25.9999 122.237 26.1736C122.411 26.3371 122.942 26.4189 123.831 26.4189C123.964 26.4189 124.102 26.4189 124.245 26.4189C124.398 26.4087 124.547 26.3985 124.69 26.3882V29.6533L122.62 29.7299C120.556 29.8015 119.146 29.4438 118.389 28.6569C117.899 28.1562 117.654 27.3846 117.654 26.3422V16.0566H115.324ZM153.293 10.9061H141.337V15.704H152.312V19.6282H141.337V25.4378H153.845V29.5H136.723V6.90522H153.293V10.9061ZM166.384 21.3757C166.108 21.5494 165.827 21.6925 165.541 21.8049C165.265 21.9071 164.882 22.0042 164.391 22.0961L163.41 22.2801C162.491 22.4436 161.832 22.6429 161.433 22.8779C160.759 23.2765 160.421 23.8947 160.421 24.7327C160.421 25.4787 160.626 26.0203 161.034 26.3576C161.453 26.6846 161.959 26.8481 162.552 26.8481C163.492 26.8481 164.356 26.5722 165.143 26.0203C165.94 25.4685 166.354 24.4619 166.384 23.0006V21.3757ZM163.732 19.3369C164.54 19.2348 165.117 19.107 165.464 18.9537C166.088 18.688 166.4 18.2741 166.4 17.7121C166.4 17.0274 166.159 16.5573 165.679 16.3018C165.209 16.0361 164.514 15.9033 163.594 15.9033C162.562 15.9033 161.832 16.1588 161.402 16.6697C161.096 17.0478 160.891 17.5588 160.789 18.2026H156.574C156.666 16.7413 157.074 15.5405 157.8 14.6003C158.955 13.1287 160.937 12.393 163.748 12.393C165.577 12.393 167.202 12.7557 168.622 13.4813C170.043 14.2069 170.753 15.5763 170.753 17.5895V25.2539C170.753 25.7853 170.763 26.4291 170.784 27.1853C170.814 27.7576 170.901 28.1459 171.044 28.3503C171.187 28.5547 171.402 28.7233 171.688 28.8562V29.5H166.936C166.803 29.1628 166.711 28.846 166.66 28.5496C166.609 28.2533 166.568 27.916 166.538 27.5379C165.935 28.1919 165.24 28.7489 164.453 29.2088C163.513 29.7504 162.45 30.0212 161.264 30.0212C159.752 30.0212 158.5 29.592 157.509 28.7336C156.528 27.8649 156.037 26.6386 156.037 25.0546C156.037 23.0006 156.829 21.5136 158.413 20.5939C159.282 20.0932 160.559 19.7355 162.245 19.5209L163.732 19.3369ZM178.05 24.1655C178.141 24.9422 178.341 25.4941 178.647 25.8211C179.189 26.4036 180.19 26.6948 181.652 26.6948C182.51 26.6948 183.19 26.5671 183.691 26.3116C184.201 26.0561 184.457 25.6729 184.457 25.1619C184.457 24.6714 184.253 24.2984 183.844 24.0429C183.435 23.7874 181.917 23.348 179.291 22.7246C177.401 22.2545 176.067 21.6669 175.29 20.9618C174.514 20.2669 174.125 19.2654 174.125 17.9573C174.125 16.4142 174.728 15.0908 175.934 13.9872C177.15 12.8733 178.857 12.3163 181.054 12.3163C183.139 12.3163 184.835 12.7353 186.143 13.5733C187.461 14.401 188.218 15.8369 188.412 17.8807H184.043C183.982 17.3186 183.823 16.8741 183.568 16.5471C183.088 15.9544 182.27 15.658 181.115 15.658C180.165 15.658 179.485 15.8062 179.077 16.1026C178.678 16.3989 178.479 16.7464 178.479 17.1449C178.479 17.6457 178.693 18.0084 179.123 18.2333C179.552 18.4683 181.069 18.872 183.675 19.4442C185.412 19.853 186.715 20.4713 187.584 21.299C188.442 22.137 188.872 23.1845 188.872 24.4415C188.872 26.097 188.253 27.451 187.017 28.5036C185.791 29.546 183.89 30.0672 181.315 30.0672C178.688 30.0672 176.747 29.5153 175.49 28.4116C174.243 27.2977 173.619 25.8824 173.619 24.1655H178.05ZM198.713 15.9493C197.701 15.9493 196.914 16.2661 196.352 16.8997C195.8 17.5332 195.453 18.3917 195.31 19.4749H202.101C202.029 18.3201 201.676 17.4464 201.043 16.8537C200.419 16.2507 199.643 15.9493 198.713 15.9493ZM198.713 12.347C200.103 12.347 201.355 12.6076 202.468 13.1287C203.582 13.6499 204.502 14.4726 205.228 15.5967C205.882 16.588 206.306 17.7376 206.5 19.0457C206.612 19.8121 206.658 20.9158 206.638 22.3567H195.203C195.264 24.0327 195.79 25.2079 196.781 25.8824C197.384 26.3014 198.11 26.5109 198.958 26.5109C199.857 26.5109 200.588 26.2554 201.15 25.7444C201.457 25.4685 201.728 25.0853 201.963 24.5948H206.423C206.311 25.586 205.795 26.5926 204.875 27.6145C203.444 29.2394 201.441 30.0518 198.866 30.0518C196.741 30.0518 194.865 29.3671 193.24 27.9978C191.616 26.6284 190.803 24.4006 190.803 21.3144C190.803 18.4223 191.534 16.2047 192.995 14.6616C194.467 13.1185 196.373 12.347 198.713 12.347Z" fill="black"/>
</svg>
