<svg width="573" height="573" viewBox="0 0 573 573" fill="none" xmlns="http://www.w3.org/2000/svg">
<path d="M521.401 211.405L512.035 218.606L512.137 230.794L502.993 223.659L492.147 227.759L495.857 216.153L489.047 206.51L500.485 206.463L507.12 196.404L510.48 207.981L521.401 211.405Z" fill="#FFED88"/>
<path d="M427.844 73.9719C428.092 75.8998 427.865 77.8587 427.183 79.6792C426.501 81.4991 425.384 83.125 423.931 84.4154C422.477 85.7052 420.731 86.6214 418.842 87.0822C416.954 87.5436 414.982 87.5371 413.097 87.0619C411.212 86.5874 409.472 85.6599 408.027 84.3593C406.583 83.0587 405.478 81.425 404.809 79.5998C404.14 77.7752 403.927 75.8144 404.188 73.8883C404.449 71.9622 405.177 70.1292 406.308 68.5487C411.322 61.5431 421.801 62.4408 426.271 69.5114C427.108 70.8687 427.645 72.3896 427.844 73.9719Z" fill="#171717"/>
<path d="M411.102 184.797L410.612 184.77C410.945 179.402 410.991 173.1 409.299 166.094L409.41 166.066C414.798 166.054 420.182 165.726 425.531 165.085C424.587 167.657 424.273 170.407 423.967 173.127C423.44 177.718 422.919 182.311 422.403 186.907C419.053 185.343 415.036 186.269 411.529 185.149C411.443 185.133 411.362 185.099 411.29 185.05C411.218 185 411.157 184.936 411.111 184.862C411.104 184.842 411.101 184.819 411.102 184.797Z" fill="#FFED88"/>
<path d="M411.529 185.151C415.036 186.271 419.053 185.346 422.403 186.91C422.92 182.31 423.442 177.716 423.967 173.129C424.272 170.408 424.587 167.66 425.531 165.087C420.181 165.728 414.798 166.056 409.41 166.068L409.299 166.096C408.507 162.81 407.401 159.608 405.994 156.536L405.957 156.212C413.342 151.113 420.682 141.302 426.679 130.687C429.999 124.809 432.915 118.711 435.406 112.437C435.665 111.789 435.915 111.142 436.156 110.503L436.748 110.715C449.056 133.934 454.184 165.485 437.433 187.817C432.296 195.211 423.902 204.947 414.435 203.059C413.75 202.93 413.077 202.741 412.426 202.494C408.697 199.616 410.048 193.398 410.612 184.772L411.103 184.8C411.101 184.822 411.105 184.844 411.113 184.865C411.158 184.939 411.219 185.002 411.29 185.051C411.362 185.101 411.443 185.134 411.529 185.151Z" fill="#FFED88"/>
<path d="M396.915 109.15C413.425 95.2426 413.639 117.599 409.779 138.635L409.409 138.57C406.505 137.649 403.786 136.223 401.376 134.359C398.572 141.578 395.44 148.661 391.982 155.608C396.112 156.982 400.077 158.814 403.8 161.068L403.874 161.096C402.8 163.947 401.774 166.075 400.895 167.158C396.674 174.413 393.361 184.169 385.393 187.907C376.111 189.323 372.325 178.051 372.52 170.332C372.683 162.658 373.917 155.045 376.185 147.713C376.222 147.594 376.268 147.464 376.304 147.334C380.59 133.416 388.114 120.283 396.915 109.15Z" fill="#FFED88"/>
<path d="M391.983 155.608C395.435 148.676 398.566 141.594 401.376 134.36C403.786 136.224 406.505 137.65 409.41 138.571L409.78 138.636C408.706 144.529 407.3 150.356 405.569 156.09C405.004 157.922 404.431 159.607 403.875 161.097L403.801 161.069C400.077 158.815 396.113 156.983 391.983 155.608Z" fill="#FFED88"/>
<path d="M399.377 46.9206C409.112 30.725 420.839 19.3695 433.339 25.6904C446.601 32.4005 449.008 47.5038 447.48 63.3387L447.434 63.3292C444.982 60.192 441.493 58.0356 437.957 56.2032C426.051 50.0618 412.836 46.8898 399.439 46.9577L399.377 46.9206Z" fill="#FFED88"/>
<path d="M373.918 117.673C373.538 127.51 374.565 137.571 375.676 147.14L376.305 147.334C376.268 147.464 376.222 147.593 376.186 147.713L375.418 147.475C358.814 145.041 350.689 160.515 349.615 174.812C348.903 175.647 347.561 175.089 346.7 174.432C345.604 173.566 344.59 172.6 343.673 171.545C335.715 162.364 336.677 148.147 339.87 136.904C340.311 134.478 340.939 132.089 341.749 129.759C345.534 132.61 349.412 135.331 353.382 137.922C356.779 132.931 359.897 127.756 362.721 122.419L352.395 113.145L351.96 112.766C358.884 105.131 368.016 99.3283 377.956 95.2935L378.04 95.3209C377.873 95.7835 377.716 96.2282 377.568 96.6627C376.197 100.663 375.227 104.789 374.671 108.981C374.275 111.864 374.023 114.765 373.918 117.673Z" fill="#FFED88"/>
<path d="M344.923 393.094C358.259 396.046 368.857 386.024 368.384 373.233H368.402C371.854 380.878 371.41 389.984 368.044 397.666C364.678 405.347 358.576 411.64 351.459 416.092C349.706 417.224 347.843 418.177 345.897 418.933C344.888 419.31 343.851 419.609 342.797 419.829L342.566 419.819C342.804 410.888 343.324 401.967 343.926 393.027L344.923 393.094Z" fill="#FFED88"/>
<path d="M359.656 548.101C345.788 545.571 332.254 541.47 319.315 535.874L318.852 535.662C319.325 535.178 319.744 534.645 320.101 534.07C320.862 532.781 321.344 531.346 321.518 529.859L321.721 529.887C323.044 530.174 324.347 530.498 325.654 530.859C329.513 531.914 333.317 533.246 337.121 534.542C339.592 535.393 342.075 536.227 344.582 536.967C347.551 537.867 350.579 538.565 353.643 539.056C355.064 539.285 356.498 539.43 357.936 539.491C360.573 539.633 363.212 539.297 365.729 538.501C369.588 537.214 373.077 534.308 374.265 530.412C375.107 527.663 374.765 524.682 374.191 521.86C373.783 519.88 373.236 517.835 371.914 516.289C371.319 515.616 370.619 515.045 369.841 514.596C368.846 514.022 367.806 513.53 366.731 513.124C362.513 511.413 358.228 509.861 353.877 508.468C352.97 508.17 352.063 507.885 351.146 507.608L351.091 507.275C359.401 505.88 367.573 503.761 375.514 500.944C379.697 504.516 383.927 508.163 387.055 512.689C390.238 517.288 392.228 522.989 391.284 528.506C390.692 531.958 389.007 535.114 387.267 538.15C385.907 540.528 384.462 542.916 382.436 544.757C379.484 547.432 375.495 548.746 371.525 549.07C367.556 549.394 363.571 548.804 359.656 548.101Z" fill="#FFED88"/>
<path d="M352.391 113.148L362.72 122.42C359.896 127.755 356.78 132.93 353.383 137.921C349.412 135.339 345.534 132.618 341.749 129.758C343.965 123.461 347.437 117.68 351.956 112.767L352.391 113.148Z" fill="#FFED88"/>
<path d="M304.016 115.961L309.504 126.836L298.149 124.494L290.236 132.972L288.422 120.922L278.038 115.295L288.283 110.187L289.773 98.22L297.917 107.114L309.217 105.356L304.016 115.961Z" fill="#FFED88"/>
<path d="M275.815 249.276C270.67 247.563 265.802 244.843 260.443 243.908C243.119 240.678 234.595 254.727 237.325 270.46C237.751 273.653 236.297 276.114 234.206 278.391C233.669 278.984 233.095 279.557 232.494 280.131C222.646 287.322 223.674 271.737 227.2 265.231C227.67 264.691 228.08 264.101 228.422 263.473C227.936 264 227.526 264.592 227.2 265.231C224.544 268.322 219.833 270.304 216.826 266.804C214.651 259.623 225.21 247.73 229.208 245.268C212.152 244.75 223.73 225.435 235.132 231.821C227.551 216.393 243.933 208.055 249.402 225.287C245.274 207.842 263.803 205.093 262.016 223.64C265.07 202.391 283.589 208.222 273.27 228.184C287.911 207.685 302.21 227.416 279.989 237.3C296.582 231.812 300.729 252.561 281.442 250.599C279.527 250.35 277.641 249.907 275.815 249.276Z" fill="#171717"/>
<path d="M274.79 320.259C273.864 323.942 270.07 323.183 260.695 322.98C250.218 322.517 239.327 324.757 229.081 322.267C228.546 321.826 228.153 321.237 227.951 320.573C227.091 317.954 228.544 314.114 228.414 311.467C228.47 309.681 229.599 308.218 231.459 308.634C232.689 308.783 233.911 308.903 235.142 308.987C243.175 309.643 251.143 309.384 259.196 309.421C259.816 309.421 260.436 309.421 261.056 309.431C266.452 309.486 274.068 308.227 274.633 312.837C275.067 316.353 275.187 318.704 274.79 320.259Z" fill="#FFED88"/>
<path d="M214.662 505.872C217.161 504.104 219.656 502.337 222.15 500.569C222.973 499.986 223.797 499.403 224.611 498.829C225.359 500.64 226.636 502.181 228.276 503.253L228.054 503.595C220.012 510.731 210.89 516.548 201.027 520.828C198.149 522.077 195.068 523.206 191.958 522.818C190.134 522.538 188.392 521.869 186.849 520.855C182.426 518.07 179.4 513.573 176.808 509.037C175.586 506.888 174.411 504.669 173.939 502.244C173.236 498.616 174.178 494.822 175.892 491.555C177.604 488.279 180.047 485.456 182.527 482.726C188.624 476.017 195.1 469.664 201.926 463.698C204.86 461.125 208.006 458.553 211.81 457.701C215.012 456.979 218.353 457.563 221.583 458.164C223.258 459.607 224.908 461.079 226.534 462.581C226.664 462.563 226.793 462.553 226.923 462.535C230.56 462.09 234.225 461.739 237.89 461.452L237.918 461.757C232.307 464.459 228.691 469.679 226.405 475.593L226.285 475.547C224.437 475.828 222.607 476.22 220.807 476.722C218.109 477.468 215.463 478.389 212.885 479.48C210.831 480.332 208.804 481.266 206.805 482.257C206.694 482.312 206.573 482.368 206.462 482.423C203.58 483.792 200.829 485.421 198.244 487.291C197.342 487.969 196.483 488.702 195.671 489.485C192.571 492.492 190.24 496.49 190.016 500.803C189.793 505.116 192.006 509.669 195.921 511.483C197.11 512.013 198.387 512.317 199.687 512.378C201.61 512.443 203.527 512.126 205.325 511.444C206.714 510.919 208.05 510.262 209.314 509.481C210.795 508.602 212.219 507.593 213.636 506.594L214.662 505.872Z" fill="#FFED88"/>
<path d="M215.902 198.966L214.338 199.3C201.826 206.278 189.314 213.262 176.802 220.25C169.731 224.997 165.27 223.489 158.653 219.658C157.32 211.291 166.501 202.194 164.159 198.566C150.277 185.211 104.577 237.825 103.087 222.11C104.975 209.163 110.898 197.085 114.675 184.61C104.633 184.795 96.9516 195.17 86.5958 196.234C80.719 170.628 98.932 144.537 115.47 126.361C143.549 119.735 174.74 127.777 197.736 159.01C196.626 160.504 195.717 162.138 195.033 163.869C189.638 178.898 201.181 186.959 211.208 183.729L211.403 184.35C213.367 189.067 214.874 193.962 215.902 198.966Z" fill="#FFED88"/>
<path d="M205.176 397.276L205.195 397.175C209.238 384.891 211.922 372.202 213.2 359.333C202.483 360.869 192.137 364.182 185.853 373.187C177.246 388.123 192.461 395.278 205.176 397.276ZM215.92 404.967C230.858 388.892 219.521 383.08 209.072 400.544H209.063C209.081 409.428 209.498 418.424 209.784 427.317C209.831 428.641 209.868 429.964 209.904 431.279C207.997 431.577 206.063 431.908 204.11 432.259C199.224 433.139 194.189 434.11 189.129 434.897C175.33 437.062 161.272 437.886 148.954 431.674C148.536 431.461 148.121 431.248 147.705 431.017C123.494 410.398 133.443 366.077 155.822 347.577C176.479 331.622 203.003 326.522 227.907 320.581L227.953 320.571C228.155 321.235 228.548 321.824 229.082 322.265C239.327 324.755 250.22 322.515 260.697 322.978C270.072 323.182 273.866 323.94 274.792 320.257C279.985 320.032 285.187 320.223 290.349 320.831L290.506 320.905C289.155 323.922 289.099 327.513 291.08 331.242C282.982 326.559 273.903 337.295 273.996 345.05C260.873 345.189 247.842 344.939 235.126 344.282C234.802 364.495 232.34 384.614 230.172 404.746C225.462 404.662 220.382 403.255 215.921 404.967H215.92Z" fill="#FFED88"/>
<path d="M134.767 85.4481L143.383 96.276L131.536 94.175L124.151 103.375L123.874 90.8809L111.167 87.7156L120.819 80.5895L120.967 68.2712L129.602 78.1274L141.097 76.4896L134.767 85.4481Z" fill="#FFED88"/>
<path d="M124.003 293.384L123.985 293.541C102.134 290.367 81.8387 279.428 66.1612 262.454C75.2934 258.974 84.5593 250.09 94.6011 252.024C92.6809 255.443 91.7635 259.334 91.9539 263.25C112.785 265.036 128.418 222.437 139.486 228.638C133.711 240.521 126.141 251.793 121.375 264.046C122.929 276.383 143.808 260.242 147.982 255.421C154.497 249.701 163.614 240.363 172.377 243.51C163.632 264.823 142.124 279.278 124.003 293.384Z" fill="#FFED88"/>
<path d="M227.202 265.231C223.676 271.737 222.649 287.322 232.495 280.131C233.097 279.557 233.671 278.984 234.208 278.391C236.297 276.114 237.752 273.653 237.326 270.46C234.596 254.727 243.12 240.675 260.445 243.908C265.803 244.843 270.671 247.563 275.817 249.276C277.643 249.907 279.528 250.35 281.444 250.599C300.731 252.561 296.585 231.812 279.991 237.3C302.212 227.416 287.913 207.685 273.272 228.184C283.591 208.222 265.072 202.391 262.018 223.64C263.804 205.093 245.276 207.842 249.404 225.287C243.934 208.055 227.554 216.394 235.133 231.821C223.733 225.435 212.153 244.75 229.21 245.268C225.211 247.73 214.652 259.622 216.827 266.804C219.835 270.303 224.546 268.322 227.202 265.231Z" stroke="#171717" stroke-width="2.77666" stroke-linecap="round" stroke-linejoin="round"/>
<path d="M227.202 265.23C227.672 264.69 228.082 264.1 228.424 263.472C227.938 264 227.528 264.592 227.202 265.23Z" stroke="#171717" stroke-width="2.77666" stroke-linecap="round" stroke-linejoin="round"/>
<path d="M267.886 254.217C243.204 242.418 270.005 278.937 256.318 278.033" stroke="#171717" stroke-width="2.77666" stroke-linecap="round" stroke-linejoin="round"/>
<path d="M250.043 259.317C248.983 258.566 247.703 258.192 246.406 258.253C245.118 258.321 243.859 258.662 242.713 259.252" stroke="#171717" stroke-width="2.77666" stroke-linecap="round" stroke-linejoin="round"/>
<path d="M262.759 260.871C263.198 260.525 263.713 260.287 264.262 260.179C264.811 260.072 265.377 260.096 265.915 260.251C266.985 260.574 267.977 261.112 268.83 261.834" stroke="#171717" stroke-width="2.77666" stroke-linecap="round" stroke-linejoin="round"/>
<path d="M242 283.842C242.569 285.411 243.635 286.753 245.036 287.662C245.739 288.106 246.533 288.389 247.359 288.488C248.185 288.587 249.022 288.501 249.811 288.235" stroke="#171717" stroke-width="2.77666" stroke-linecap="round" stroke-linejoin="round"/>
<path d="M275.816 249.229V249.276C275.242 258.956 274.665 268.639 274.085 278.326C274.826 297.076 258.037 290.811 259.194 309.329" stroke="#171717" stroke-width="2.77666" stroke-linecap="round" stroke-linejoin="round"/>
<path d="M234.18 278.196L234.208 278.39C235.518 288.208 235.859 298.131 235.227 308.015" stroke="#171717" stroke-width="2.77666" stroke-linecap="round" stroke-linejoin="round"/>
<path d="M235.143 308.987C233.912 308.903 232.69 308.783 231.459 308.634C229.599 308.217 228.47 309.681 228.415 311.467C228.545 314.114 227.091 317.954 227.952 320.573C228.154 321.237 228.546 321.826 229.081 322.267C239.326 324.757 250.219 322.517 260.695 322.98C270.07 323.183 273.865 323.942 274.791 320.259C275.188 318.707 275.068 316.353 274.633 312.837C274.068 308.227 266.452 309.486 261.056 309.431C260.436 309.422 259.816 309.422 259.196 309.422C251.144 309.384 243.176 309.644 235.143 308.987Z" stroke="#171717" stroke-width="2.77666" stroke-linecap="round" stroke-linejoin="round"/>
<path d="M227.906 320.582C203.001 326.524 176.477 331.624 155.821 347.578C133.443 366.081 123.494 410.399 147.703 431.018C148.121 431.25 148.536 431.463 148.953 431.675C161.271 437.883 175.328 437.061 189.128 434.898C194.19 434.111 199.224 433.14 204.109 432.261C206.062 431.909 207.996 431.576 209.902 431.28C209.865 429.967 209.828 428.642 209.783 427.318C209.496 418.425 209.079 409.429 209.061 400.544C209.052 399.61 209.052 398.674 209.061 397.739C207.812 397.638 206.507 397.49 205.174 397.277C192.461 395.278 177.243 388.123 185.85 373.187C192.134 364.182 202.481 360.868 213.198 359.332C218.945 358.508 224.803 358.194 230.18 357.787" stroke="#171717" stroke-width="2.77666" stroke-linecap="round" stroke-linejoin="round"/>
<path d="M209.072 400.544C219.518 383.08 230.858 388.892 215.92 404.968C220.381 403.256 225.462 404.662 230.173 404.746C230.395 404.755 230.607 404.755 230.821 404.755" stroke="#171717" stroke-width="2.77666" stroke-linecap="round" stroke-linejoin="round"/>
<path d="M209.729 427.308C209.748 427.308 209.766 427.317 209.785 427.317C215.764 428.52 221.739 429.727 227.711 430.936C227.89 430.963 228.063 431 228.239 431.037" stroke="#171717" stroke-width="2.77666" stroke-linecap="round" stroke-linejoin="round"/>
<path d="M227.813 421.838C224.657 420.96 221.456 420.246 218.225 419.701" stroke="#171717" stroke-width="2.77666" stroke-linecap="round" stroke-linejoin="round"/>
<path d="M229.1 411.908C226.104 411.074 223.046 410.483 219.956 410.141" stroke="#171717" stroke-width="2.77666" stroke-linecap="round" stroke-linejoin="round"/>
<path d="M274.004 345.274C274.006 345.2 274.002 345.126 273.994 345.052C273.902 337.296 282.981 326.561 291.079 331.244C289.098 327.514 289.154 323.923 290.505 320.907C293.31 314.623 301.713 310.847 308.922 313.614C309.041 313.66 309.172 313.707 309.292 313.762" stroke="#171717" stroke-width="2.77666" stroke-linecap="round" stroke-linejoin="round"/>
<path d="M307.348 318.5C307.644 316.806 308.174 315.162 308.922 313.614C309.655 311.957 310.987 310.638 312.651 309.921C313.365 309.634 314.122 309.468 314.891 309.431" stroke="#171717" stroke-width="2.77666" stroke-linecap="round" stroke-linejoin="round"/>
<path d="M336.899 260.067C335.331 259.462 333.691 259.06 332.021 258.873C315.65 256.994 302.61 276.984 313.762 289.58C314.868 290.82 316.121 291.922 317.492 292.863" stroke="#171717" stroke-width="2.77666" stroke-linecap="round" stroke-linejoin="round"/>
<path d="M352.844 209.378C350.996 209.673 349.205 210.25 347.532 211.09C336.648 216.615 335.296 232.302 340.822 243.269C341.472 244.573 342.234 245.818 343.099 246.989" stroke="#171717" stroke-width="2.77666" stroke-linecap="round" stroke-linejoin="round"/>
<path d="M414.425 203.038C414.425 203.048 414.425 203.048 414.435 203.057C419.729 224.63 402.996 246.73 382.053 239.539C379.686 238.713 377.424 237.611 375.315 236.256" stroke="#171717" stroke-width="2.77666" stroke-linecap="round" stroke-linejoin="round"/>
<path d="M363.487 308.756C364.66 308.849 365.839 308.856 367.013 308.774C391.594 307.312 395.564 270.201 372.214 264.167C370.117 263.64 367.964 263.366 365.801 263.352" stroke="#171717" stroke-width="2.77666" stroke-linecap="round" stroke-linejoin="round"/>
<path d="M360.97 368.874C363.276 369.489 365.654 369.795 368.041 369.781C389.632 369.393 384.857 335.169 365.089 330.384C363.487 329.993 361.842 329.807 360.194 329.829" stroke="#171717" stroke-width="2.77666" stroke-linecap="round" stroke-linejoin="round"/>
<path d="M372.085 264.425C372.134 264.342 372.177 264.255 372.215 264.166C373.339 261.864 373.773 259.286 373.466 256.743C373.159 254.199 372.124 251.799 370.484 249.83" stroke="#171717" stroke-width="2.77666" stroke-linecap="round" stroke-linejoin="round"/>
<path d="M363.941 251.376C366.145 250.97 368.323 250.439 370.465 249.784C375.713 248.118 380.47 245.314 382.053 239.539C382.062 239.511 382.071 239.474 382.081 239.447" stroke="#171717" stroke-width="2.77666" stroke-linecap="round" stroke-linejoin="round"/>
<path d="M341.035 243.139C340.961 243.185 340.896 243.223 340.822 243.27C335.853 246.296 332.687 253.19 332.03 258.798" stroke="#171717" stroke-width="2.77666" stroke-linecap="round" stroke-linejoin="round"/>
<path d="M313.762 289.579C307.034 294.197 309.301 303.674 312.614 309.829" stroke="#171717" stroke-width="2.77666" stroke-linecap="round" stroke-linejoin="round"/>
<path d="M343.831 171.422C343.775 171.459 343.72 171.506 343.674 171.542C328.394 183.027 334.724 200.204 347.486 210.559" stroke="#171717" stroke-width="2.77666" stroke-linecap="round" stroke-linejoin="round"/>
<path d="M365.033 330.485C365.051 330.448 365.07 330.42 365.088 330.383C368.54 323.923 368.216 315.835 367.013 308.774C367.004 308.737 367.003 308.7 366.995 308.663" stroke="#171717" stroke-width="2.77666" stroke-linecap="round" stroke-linejoin="round"/>
<path d="M344.923 393.093C358.259 396.046 368.857 386.023 368.383 373.232C368.349 372.174 368.237 371.12 368.05 370.077" stroke="#171717" stroke-width="2.77666" stroke-linecap="round" stroke-linejoin="round"/>
<path d="M428.048 254.875C427.216 252.73 425.96 250.776 424.356 249.127C415.36 239.995 398.073 245.148 395.731 259.447C388.883 277.789 405.579 294.29 420.413 282.972C421.731 281.958 422.949 280.821 424.05 279.576" stroke="#171717" stroke-width="2.77666" stroke-linecap="round" stroke-linejoin="round"/>
<path d="M411.538 320.907C410.656 320.311 409.705 319.822 408.706 319.454C396.638 314.984 384.986 331.892 392.501 342.914C399.842 355.695 419.905 351.54 422.561 337.88C422.716 337.07 422.808 336.251 422.838 335.427" stroke="#171717" stroke-width="2.77666" stroke-linecap="round" stroke-linejoin="round"/>
<path d="M420.386 282.925C420.395 282.944 420.404 282.953 420.413 282.971C434.018 305.645 457.108 280.676 455.433 262.195C454.478 247.396 435.573 239.474 424.356 249.127C424.324 249.16 424.29 249.191 424.254 249.22" stroke="#171717" stroke-width="2.77666" stroke-linecap="round" stroke-linejoin="round"/>
<path d="M422.569 337.88C435.109 342.117 447.659 324.248 439.718 313.836C431.685 304.174 412.648 306.479 408.853 319.074" stroke="#171717" stroke-width="2.77666" stroke-linecap="round" stroke-linejoin="round"/>
<path d="M332.151 236.503C330.846 224.991 308.718 225.685 310.468 238.447C311.33 256.91 332.67 252.94 332.151 236.503Z" stroke="#171717" stroke-width="2.77666" stroke-linecap="round" stroke-linejoin="round"/>
<path d="M329.383 206.842C339.221 188.712 315.834 185.75 310.761 200.447C310.136 210.267 324.052 215.838 329.383 206.842Z" stroke="#171717" stroke-width="2.77666" stroke-linecap="round" stroke-linejoin="round"/>
<path d="M377.953 95.2952C368.013 99.33 358.879 105.133 351.956 112.768C347.437 117.682 343.965 123.462 341.75 129.759C340.94 132.089 340.312 134.478 339.871 136.904C336.678 148.148 335.716 162.364 343.675 171.545C344.591 172.599 345.604 173.566 346.701 174.432C347.562 175.088 348.904 175.645 349.617 174.811C350.691 160.513 358.816 145.039 375.419 147.475" stroke="#171717" stroke-width="2.77666" stroke-linecap="round" stroke-linejoin="round"/>
<path d="M436.748 110.713C449.056 133.932 454.184 165.483 437.433 187.814C432.296 195.209 423.902 204.945 414.435 203.057C413.75 202.929 413.078 202.739 412.426 202.492C408.697 199.614 410.048 193.395 410.612 184.77C410.945 179.402 410.992 173.1 409.299 166.094C408.508 162.808 407.402 159.607 405.995 156.533" stroke="#171717" stroke-width="2.77666" stroke-linecap="round" stroke-linejoin="round"/>
<path d="M409.779 138.636C413.639 117.599 413.426 95.2399 396.915 109.15C388.114 120.284 380.59 133.416 376.305 147.335C376.268 147.465 376.222 147.594 376.185 147.715C373.917 155.047 372.683 162.659 372.52 170.333C372.326 178.051 376.111 189.323 385.393 187.908C393.362 184.169 396.674 174.414 400.895 167.159C401.775 166.076 402.802 163.947 403.875 161.097C404.431 159.604 405.004 157.922 405.569 156.09C407.3 150.356 408.706 144.529 409.779 138.636Z" stroke="#171717" stroke-width="2.77666" stroke-linecap="round" stroke-linejoin="round"/>
<path d="M405.957 156.209C413.342 151.11 420.682 141.3 426.679 130.685C429.999 124.807 432.915 118.71 435.406 112.435C435.665 111.787 435.915 111.139 436.156 110.501C437.294 107.484 438.238 104.624 438.951 102.005C441.644 92.1564 446.132 77.4518 447.486 63.3387C449.014 47.5038 446.607 32.4005 433.345 25.6904C420.842 19.3695 409.116 30.725 399.383 46.9206C395.336 53.8028 391.723 60.9303 388.564 68.2623C385.454 75.3419 382.734 82.3569 380.466 88.5483H380.456C379.587 90.9454 378.773 93.2219 378.041 95.3229C377.875 95.7854 377.717 96.2301 377.569 96.6646C376.199 100.665 375.228 104.791 374.673 108.983C374.278 111.865 374.028 114.765 373.923 117.673C373.543 127.511 374.571 137.571 375.681 147.14" stroke="#171717" stroke-width="2.77666" stroke-linecap="round" stroke-linejoin="round"/>
<path d="M149.842 431.621L148.953 431.677C136.932 432.408 124.678 433.306 113.6 438.026C102.263 442.857 92.2125 452.602 90.5012 464.809C89.1881 474.249 93.0278 483.883 99.1452 491.185C105.263 498.496 113.462 503.753 121.893 508.186C140.903 518.172 161.645 524.502 182.604 529.12C222.742 537.968 264.074 540.725 305.155 539.67C310.023 539.54 315.585 538.976 318.852 535.663C319.325 535.18 319.744 534.645 320.101 534.071C320.862 532.782 321.345 531.347 321.518 529.86C321.687 528.591 321.746 527.309 321.693 526.029C321.571 521.382 320.76 516.778 319.287 512.369" stroke="#171717" stroke-width="2.77666" stroke-linecap="round" stroke-linejoin="round"/>
<path d="M342.794 424.161C356.565 423.023 370.788 422.986 383.765 427.771C396.73 432.546 408.317 442.949 411.261 456.461C411.594 458.004 411.816 459.569 411.927 461.143C412.51 469.251 410.02 477.636 404.68 483.762C401.746 487.122 398.063 489.741 394.25 492.063C388.311 495.635 382.034 498.611 375.508 500.948C367.567 503.765 359.395 505.883 351.085 507.278C343.406 508.588 335.665 509.511 327.893 510.045C326.726 510.138 325.561 510.212 324.394 510.284C322.664 510.395 320.924 510.487 319.193 510.571C290.816 511.962 262.372 510.172 234.393 505.233C232.431 504.891 230.432 504.511 228.701 503.521C228.554 503.44 228.412 503.351 228.276 503.252C226.636 502.181 225.359 500.639 224.611 498.829C222.926 495.016 223.009 490.037 223.715 485.752C224.267 482.283 225.169 478.878 226.407 475.59C228.693 469.676 232.311 464.456 237.92 461.754" stroke="#171717" stroke-width="2.77666" stroke-linecap="round" stroke-linejoin="round"/>
<path d="M235.124 344.284C247.837 344.941 260.871 345.191 273.994 345.053C298.499 344.81 322.969 343.151 347.282 340.083C346.662 357.889 345.107 375.482 343.922 393.025C343.321 401.965 342.803 410.888 342.562 419.818C342.515 421.262 342.488 422.706 342.46 424.15C342.202 435.49 342.576 446.835 343.58 458.133C308.931 462.093 272.809 458.698 237.891 461.446C234.226 461.734 230.561 462.085 226.924 462.529C226.795 462.547 226.665 462.557 226.536 462.575C224.907 461.076 223.256 459.604 221.584 458.158C211.526 449.448 200.666 441.709 189.149 435.045" stroke="#171717" stroke-width="2.77666" stroke-linecap="round" stroke-linejoin="round"/>
<path d="M235.125 344.285C234.801 364.497 232.339 384.617 230.171 404.748C229.226 413.475 228.347 422.203 227.708 430.939C227.291 436.677 226.977 442.424 226.829 448.18C226.728 452.687 226.71 457.204 226.829 461.729" stroke="#171717" stroke-width="2.77666" stroke-linecap="round" stroke-linejoin="round"/>
<path d="M204.14 432.407C211.571 437.729 219.052 442.983 226.582 448.168" stroke="#171717" stroke-width="2.77666" stroke-linecap="round" stroke-linejoin="round"/>
<path d="M297.184 383.552C296.028 382.741 294.734 382.152 293.364 381.812C286.821 379.906 278.677 380.387 274.947 386.921C269.329 395.481 270.47 403.921 274.688 409.326C275.842 410.799 277.245 412.059 278.834 413.047C285.423 417.128 294.835 415.953 301.175 404.847C302.269 402.429 302.873 399.819 302.953 397.166C303.032 394.513 302.585 391.871 301.637 389.392C300.751 387.054 299.204 385.025 297.184 383.552Z" stroke="#171717" stroke-width="2.77666" stroke-linecap="round" stroke-linejoin="round"/>
<path d="M273.466 410.427C261.805 426.234 268.376 422.514 278.834 413.047C286.945 405.671 294.562 397.769 301.634 389.392C305.781 384.357 308.548 380.192 308.455 378.341C304.948 377.842 302.032 380.461 299.737 382.784" stroke="#FFED88" stroke-width="2.77666" stroke-linecap="round" stroke-linejoin="round"/>
<path d="M216.291 227.887C212.441 249.654 199.392 269.339 180.216 282.203C175.595 285.3 170.693 287.958 165.575 290.141C152.144 294.389 137.927 295.55 123.985 293.537C102.134 290.363 81.8387 279.424 66.1612 262.451C64.2178 260.342 62.3448 258.143 60.5434 255.852C49.6968 238.841 45.6249 221.601 46.5966 205.442C48.1324 179.945 62.2188 157.151 81.9957 142.25C91.9325 134.693 103.332 129.281 115.47 126.36C143.549 119.735 174.74 127.776 197.736 159.009L197.874 159.204" stroke="#171717" stroke-width="2.77666" stroke-linecap="round" stroke-linejoin="round"/>
<path d="M211.405 184.353C213.368 189.069 214.874 193.963 215.902 198.967C217.865 208.492 217.997 218.304 216.291 227.878" stroke="#171717" stroke-width="2.77666" stroke-linecap="round" stroke-linejoin="round"/>
<path d="M197.736 159.013C196.626 160.508 195.717 162.142 195.033 163.873C189.637 178.902 201.181 186.963 211.208 183.733C215.29 182.428 219.121 179.236 221.463 173.895C227.286 155.738 207.444 146.141 197.736 159.013Z" stroke="#171717" stroke-width="2.77666" stroke-linecap="round" stroke-linejoin="round"/>
<path d="M115.526 126.299C115.507 126.318 115.489 126.346 115.47 126.364C98.932 144.54 80.719 170.63 86.5958 196.238C96.9516 195.173 104.633 184.798 114.675 184.613C110.898 197.088 104.975 209.166 103.087 222.114C104.58 237.828 150.277 185.215 164.159 198.57C166.501 202.197 157.32 211.295 158.653 219.661C165.27 223.493 169.731 225.001 176.802 220.253C189.314 213.266 201.826 206.283 214.338 199.303" stroke="#171717" stroke-width="2.77666" stroke-linecap="round" stroke-linejoin="round"/>
<path d="M82.7179 141.07C82.4678 141.458 82.2273 141.856 81.9957 142.254C76.8518 150.825 73.7165 160.451 72.8247 170.408C75.2307 169.963 77.6367 169.522 80.0433 169.084C80.3483 177.608 64.4303 210.453 58.0537 216.737C57.6649 211.558 57.8232 206.353 58.5259 201.208C53.5837 203.392 53.7873 212.101 48.5216 213.265C48.1038 211.275 46.8558 207.49 46.7352 205.454" stroke="#171717" stroke-width="2.77666" stroke-linecap="round" stroke-linejoin="round"/>
<path d="M65.8353 262.584C65.9464 262.547 66.0484 262.501 66.1594 262.454C75.2916 258.974 84.5575 250.09 94.5993 252.024C92.6792 255.443 91.7618 259.334 91.9522 263.25C112.783 265.036 128.416 222.437 139.484 228.638C133.71 240.521 126.139 251.793 121.373 264.046C122.928 276.383 143.806 260.242 147.98 255.421C154.496 249.701 163.612 240.363 172.376 243.51C163.63 264.823 142.122 279.28 124.001 293.384C124.631 293.356 125.26 293.319 125.889 293.291" stroke="#171717" stroke-width="2.77666" stroke-linecap="round" stroke-linejoin="round"/>
<path d="M179.948 281.797C175.379 280.4 170.471 280.612 166.041 282.398C155.777 283.473 175.184 266.295 179.08 258.179C179.645 257.224 180.718 256.124 181.663 256.707C192.99 270.349 203.355 203.15 216.294 227.878V227.887C216.321 227.924 216.34 227.97 216.368 228.017" stroke="#171717" stroke-width="2.77666" stroke-linecap="round" stroke-linejoin="round"/>
<path d="M213.209 359.231C213.209 359.268 213.2 359.295 213.2 359.332C211.922 372.2 209.237 384.891 205.194 397.174" stroke="#171717" stroke-width="2.77666" stroke-linecap="round" stroke-linejoin="round"/>
<path d="M342.794 419.831C343.848 419.611 344.884 419.312 345.894 418.935C347.839 418.178 349.702 417.226 351.455 416.093C358.573 411.642 364.671 405.35 368.04 397.668C371.409 389.986 371.853 380.88 368.398 373.235" stroke="#171717" stroke-width="2.77666" stroke-linecap="round" stroke-linejoin="round"/>
<path d="M221.844 458.21C221.761 458.191 221.665 458.182 221.585 458.163C218.355 457.562 215.014 456.979 211.812 457.7C208.008 458.552 204.862 461.125 201.928 463.698C195.102 469.664 188.626 476.016 182.529 482.725C180.049 485.456 177.606 488.276 175.894 491.555C174.182 494.821 173.238 498.616 173.941 502.243C174.413 504.668 175.588 506.89 176.81 509.036C179.401 513.573 182.428 518.069 186.851 520.855C188.393 521.869 190.135 522.538 191.96 522.817C195.069 523.206 198.151 522.076 201.029 520.827C210.891 516.547 220.012 510.73 228.053 503.595" stroke="#171717" stroke-width="2.77666" stroke-linecap="round" stroke-linejoin="round"/>
<path d="M226.286 475.544C224.438 475.825 222.608 476.217 220.807 476.72C218.109 477.465 215.463 478.386 212.886 479.477C210.831 480.329 208.804 481.264 206.805 482.254C206.694 482.31 206.574 482.365 206.463 482.421C203.58 483.789 200.829 485.419 198.244 487.289C197.343 487.966 196.483 488.699 195.672 489.482C192.572 492.49 190.24 496.488 190.017 500.8C189.794 505.113 192.007 509.666 195.922 511.48C197.11 512.011 198.388 512.314 199.688 512.375C201.61 512.441 203.527 512.124 205.325 511.443C206.715 510.918 208.05 510.261 209.314 509.481C210.795 508.602 212.219 507.593 213.636 506.594L214.663 505.872C217.162 504.104 219.657 502.337 222.15 500.569C222.974 499.986 223.798 499.403 224.612 498.829C224.695 498.764 224.791 498.71 224.871 498.644" stroke="#171717" stroke-width="2.77666" stroke-linecap="round" stroke-linejoin="round"/>
<path d="M223.306 503.613C222.926 502.595 222.538 501.577 222.149 500.569C220.733 496.924 219.237 493.311 217.66 489.732C216.152 486.28 214.56 482.862 212.885 479.478C212.08 477.84 211.256 476.201 210.414 474.583" stroke="#171717" stroke-width="2.77666" stroke-linecap="round" stroke-linejoin="round"/>
<path d="M213.98 510.518C214.193 508.963 214.424 507.418 214.665 505.872C215.507 500.467 216.506 495.087 217.663 489.732C218.607 485.372 219.656 481.035 220.81 476.72C221.048 475.825 221.3 474.925 221.55 474.027" stroke="#171717" stroke-width="2.77666" stroke-linecap="round" stroke-linejoin="round"/>
<path d="M210.905 512.155C210.349 511.276 209.813 510.388 209.313 509.481C207.138 505.661 205.352 501.623 203.519 497.616C201.952 494.08 200.191 490.633 198.244 487.29C197.388 485.86 196.459 484.476 195.459 483.144" stroke="#171717" stroke-width="2.77666" stroke-linecap="round" stroke-linejoin="round"/>
<path d="M198.735 515.21C199.068 514.275 199.383 513.322 199.69 512.378C201.226 507.538 202.42 502.59 203.521 497.617C203.91 495.831 204.289 494.054 204.669 492.267C205.382 488.925 206.094 485.587 206.807 482.254C207.038 481.153 207.279 480.051 207.51 478.95" stroke="#171717" stroke-width="2.77666" stroke-linecap="round" stroke-linejoin="round"/>
<path d="M319.315 535.875C332.253 541.469 345.788 545.571 359.656 548.101C363.571 548.804 367.55 549.397 371.521 549.072C375.491 548.748 379.48 547.434 382.432 544.76C384.459 542.918 385.902 540.531 387.263 538.152C389.003 535.116 390.687 531.961 391.28 528.508C392.223 522.993 390.234 517.292 387.05 512.691C383.922 508.166 379.692 504.519 375.509 500.946C375.435 500.882 375.37 500.827 375.296 500.761" stroke="#171717" stroke-width="2.77666" stroke-linecap="round" stroke-linejoin="round"/>
<path d="M323.276 532.821C324.063 532.173 324.858 531.525 325.654 530.859C328.236 528.74 330.822 526.565 333.41 524.334C339.615 519.081 345.534 513.499 351.142 507.611C352.058 507.889 352.965 508.176 353.872 508.472C358.212 509.86 362.497 511.412 366.727 513.127C367.802 513.533 368.841 514.026 369.836 514.599C370.614 515.048 371.314 515.62 371.909 516.293C373.232 517.839 373.779 519.883 374.186 521.864C374.76 524.687 375.102 527.667 374.26 530.415C373.076 534.312 369.586 537.22 365.725 538.504C363.208 539.301 360.568 539.636 357.932 539.494C356.494 539.433 355.06 539.288 353.638 539.059C350.574 538.569 347.547 537.87 344.578 536.97C342.071 536.23 339.59 535.397 337.117 534.546C333.313 533.25 329.51 531.919 325.65 530.862C324.345 530.501 323.04 530.177 321.717 529.891" stroke="#171717" stroke-width="2.77666" stroke-linecap="round" stroke-linejoin="round"/>
<path d="M337.963 536.893C337.685 536.107 337.407 535.32 337.12 534.543C335.917 531.127 334.68 527.725 333.409 524.336C331.633 519.552 329.794 514.789 327.893 510.047C327.875 510.01 327.865 509.964 327.847 509.928" stroke="#171717" stroke-width="2.77666" stroke-linecap="round" stroke-linejoin="round"/>
<path d="M342.053 539.198C342.895 538.457 343.737 537.705 344.58 536.967C348.346 533.635 352.113 530.307 355.88 526.981L369.787 514.682" stroke="#171717" stroke-width="2.77666" stroke-linecap="round" stroke-linejoin="round"/>
<path d="M358.602 542.946C358.37 541.799 358.148 540.651 357.935 539.494C357.148 535.339 356.464 531.168 355.881 526.982C355.001 520.837 354.332 514.667 353.872 508.472C353.872 508.435 353.863 508.408 353.863 508.371" stroke="#171717" stroke-width="2.77666" stroke-linecap="round" stroke-linejoin="round"/>
<path d="M447.437 63.329C444.985 60.1918 441.496 58.0351 437.96 56.2027C426.054 50.0612 412.839 46.8893 399.442 46.9571" stroke="#171717" stroke-width="2.77666" stroke-linecap="round" stroke-linejoin="round"/>
<path d="M406.308 68.5487C405.177 70.1292 404.449 71.9622 404.188 73.8883C403.927 75.8144 404.14 77.7752 404.809 79.5998C405.478 81.425 406.583 83.0587 408.027 84.3593C409.472 85.6599 411.212 86.5874 413.097 87.0619C414.982 87.5371 416.954 87.5436 418.842 87.0822C420.731 86.6214 422.477 85.7052 423.931 84.4154C425.384 83.125 426.501 81.4991 427.183 79.6792C427.865 77.8587 428.092 75.8998 427.844 73.9719C427.645 72.3896 427.108 70.8687 426.271 69.5114C421.801 62.4408 411.325 61.5431 406.308 68.5487Z" stroke="#171717" stroke-width="2.77666" stroke-linecap="round" stroke-linejoin="round"/>
<path d="M388.91 68.4192C391.788 69.5485 394.703 70.5757 397.656 71.5009C394.556 78.3948 391.918 85.4874 389.759 92.7317C386.82 91.0115 383.705 89.6124 380.468 88.5578" stroke="#171717" stroke-width="2.77666" stroke-linecap="round" stroke-linejoin="round"/>
<path d="M426.474 130.575C423.626 129.361 420.92 127.836 418.405 126.031C421.783 120.088 424.976 114.051 427.983 107.919C430.251 109.345 432.522 110.769 434.795 112.195" stroke="#171717" stroke-width="2.77666" stroke-linecap="round" stroke-linejoin="round"/>
<path d="M373.631 117.636C373.723 117.645 373.825 117.654 373.917 117.673C375.04 117.806 376.154 118.013 377.249 118.293C378.693 118.626 380.146 118.968 381.599 119.302C381.776 115.813 382.328 112.353 383.246 108.983C383.293 108.816 383.311 108.585 383.153 108.511C383.096 108.494 383.036 108.491 382.978 108.502L374.963 109.029" stroke="#171717" stroke-width="2.77666" stroke-linecap="round" stroke-linejoin="round"/>
<path d="M341.684 129.714C341.702 129.732 341.73 129.741 341.748 129.76C345.533 132.61 349.411 135.331 353.382 137.922C356.779 132.931 359.897 127.756 362.721 122.419L352.395 113.146" stroke="#171717" stroke-width="2.77666" stroke-linecap="round" stroke-linejoin="round"/>
<path d="M409.41 166.066C414.798 166.054 420.181 165.726 425.531 165.085C424.587 167.657 424.272 170.407 423.967 173.127C423.44 177.718 422.918 182.311 422.403 186.907C419.053 185.343 415.036 186.269 411.529 185.149C411.443 185.133 411.361 185.099 411.289 185.05C411.218 185 411.157 184.936 411.111 184.862C411.103 184.842 411.099 184.819 411.101 184.797C411.101 184.649 411.259 184.483 411.379 184.575" stroke="#171717" stroke-width="2.77666" stroke-linecap="round" stroke-linejoin="round"/>
<path d="M403.801 161.069C400.077 158.814 396.113 156.983 391.983 155.608C395.435 148.676 398.566 141.594 401.376 134.36C403.786 136.224 406.505 137.65 409.41 138.571" stroke="#171717" stroke-width="2.77666" stroke-linecap="round" stroke-linejoin="round"/>
<path d="M359.557 122.598C359.528 122.479 359.457 122.374 359.356 122.302C359.256 122.231 359.134 122.198 359.011 122.209C358.794 122.24 358.593 122.341 358.44 122.499C358.287 122.657 358.192 122.861 358.169 123.079C358.141 123.242 358.151 123.409 358.198 123.568C358.244 123.727 358.326 123.873 358.437 123.995C358.552 124.116 358.701 124.2 358.865 124.235C359.028 124.269 359.199 124.254 359.353 124.19C359.469 124.112 359.569 124.011 359.646 123.894C359.723 123.777 359.776 123.646 359.802 123.508C359.828 123.37 359.826 123.228 359.797 123.091C359.768 122.954 359.711 122.824 359.631 122.709" stroke="#171717" stroke-width="2.77666" stroke-linecap="round" stroke-linejoin="round"/>
<path d="M353.15 133.175C352.882 133.126 352.606 133.187 352.382 133.341C352.287 133.414 352.207 133.505 352.148 133.61C352.089 133.714 352.051 133.83 352.037 133.948C352.024 134.068 352.034 134.188 352.068 134.303C352.101 134.419 352.158 134.525 352.234 134.619C352.32 134.7 352.424 134.761 352.538 134.795C352.652 134.829 352.772 134.836 352.889 134.815C353.006 134.794 353.117 134.746 353.212 134.675C353.307 134.604 353.384 134.512 353.437 134.406C353.475 134.218 353.474 134.025 353.433 133.838C353.392 133.652 353.312 133.476 353.198 133.323" stroke="#171717" stroke-width="2.77666" stroke-linecap="round" stroke-linejoin="round"/>
<path d="M403.042 138.329C402.832 138.262 402.608 138.252 402.393 138.301C402.178 138.35 401.98 138.455 401.82 138.607C401.662 138.764 401.56 138.968 401.529 139.189C401.497 139.409 401.537 139.634 401.645 139.829C401.76 140.017 401.942 140.156 402.154 140.217C402.366 140.279 402.593 140.259 402.792 140.162C402.885 140.106 402.965 140.032 403.027 139.943C403.089 139.854 403.132 139.753 403.153 139.647C403.174 139.54 403.172 139.431 403.148 139.326C403.125 139.22 403.079 139.12 403.014 139.033" stroke="#171717" stroke-width="2.77666" stroke-linecap="round" stroke-linejoin="round"/>
<path d="M398.11 151.878C397.943 151.807 397.76 151.782 397.581 151.807C397.402 151.831 397.233 151.904 397.091 152.017C396.813 152.249 396.594 152.544 396.453 152.878C396.317 153.116 396.231 153.38 396.203 153.654C396.191 153.793 396.216 153.932 396.274 154.058C396.332 154.185 396.423 154.294 396.536 154.375C396.672 154.452 396.825 154.493 396.98 154.495C397.646 154.54 398.443 154.17 398.489 153.504C398.475 153.127 398.335 152.765 398.091 152.477" stroke="#171717" stroke-width="2.77666" stroke-linecap="round" stroke-linejoin="round"/>
<path d="M388.088 87.084C387.954 87.0876 387.821 87.1192 387.7 87.1765C387.512 87.2535 387.35 87.3806 387.231 87.5442C387.112 87.7071 387.04 87.9005 387.024 88.1023C387.022 88.236 387.049 88.3679 387.102 88.4902C387.154 88.6126 387.232 88.723 387.329 88.8137C387.427 88.9045 387.542 88.9737 387.669 89.0167C387.795 89.0602 387.928 89.077 388.061 89.065C388.257 89.0053 388.44 88.9062 388.597 88.7743C388.754 88.6424 388.884 88.4801 388.977 88.2968C389.04 88.2145 389.076 88.1142 389.079 88.0097C389.056 87.9208 389.008 87.8402 388.94 87.7782C388.756 87.5836 388.551 87.4099 388.329 87.2601C388.264 87.2231 388.135 87.2231 388.107 87.2601C388.088 87.2786 388.088 87.2971 388.107 87.3251" stroke="#171717" stroke-width="2.77666" stroke-linecap="round" stroke-linejoin="round"/>
<path d="M394.028 72.5753C393.945 72.5084 393.849 72.4595 393.746 72.4314C393.644 72.4034 393.537 72.3968 393.431 72.4129C393.326 72.4285 393.225 72.4655 393.135 72.5222C393.045 72.5789 392.968 72.6535 392.908 72.7418C392.806 72.9322 392.778 73.1537 392.829 73.3638C392.88 73.5739 393.008 73.7577 393.186 73.8801C393.371 73.9905 393.587 74.0388 393.803 74.0173C394.017 73.9959 394.22 73.9057 394.38 73.7607C394.639 73.5106 394.694 72.9847 394.351 72.8654" stroke="#171717" stroke-width="2.77666" stroke-linecap="round" stroke-linejoin="round"/>
<path d="M524.898 117.488C526.273 115.959 527.285 114.14 527.86 112.167C530.904 101.163 520.698 89.77 509.86 89.5294C508.778 89.502 507.696 89.582 506.63 89.7682C502.319 90.4874 498.386 92.6708 495.496 95.95C494.999 96.5182 494.538 97.1175 494.117 97.7454C492.425 100.336 491.38 103.296 491.069 106.376C490.758 109.455 491.191 112.564 492.331 115.441C493.154 117.525 494.392 119.42 495.969 121.012C499.161 124.186 503.798 125.713 508.296 125.565C512.828 125.309 517.19 123.754 520.864 121.089C522.354 120.061 523.709 118.852 524.898 117.488Z" stroke="#171717" stroke-width="2.77666" stroke-linecap="round" stroke-linejoin="round"/>
<path d="M517.329 125.855C518.236 127.152 519.409 128.242 520.77 129.052C522.131 129.86 523.649 130.37 525.223 130.547C525.653 130.619 526.094 130.587 526.509 130.454C527.454 130.084 527.796 128.936 527.87 127.928C528.157 124.263 526.63 120.774 524.899 117.488C524.695 117.109 524.501 116.739 524.297 116.369C522.567 113.176 520.793 110.002 518.976 106.845C515.45 100.747 511.664 94.6292 506.63 89.7706C505.526 88.6915 504.355 87.6839 503.123 86.7534C500.929 85.106 497.93 83.6902 495.571 85.0875C494.09 85.9667 493.359 87.7621 493.294 89.4746C493.337 91.1977 493.665 92.9024 494.266 94.5181C494.331 94.7402 494.46 95.0088 494.692 94.9992C494.923 94.9992 494.83 94.5092 494.664 94.6662" stroke="#FFED88" stroke-width="2.77666" stroke-linecap="round" stroke-linejoin="round"/>
<path d="M274.502 320.268C274.595 320.268 274.697 320.259 274.789 320.259C279.982 320.034 285.184 320.225 290.346 320.832" stroke="#171717" stroke-width="2.77666" stroke-linecap="round" stroke-linejoin="round"/>
<path d="M61.5432 320.435L71.0108 328.82L83.31 320.213L78.5255 332.41L85.2535 341.868L74.3886 340.36L68.7248 352.983L65.1525 341.498L53.5934 339.157L62.848 333.058L61.5432 320.435Z" stroke="#FFED88" stroke-width="2.77666" stroke-linecap="round" stroke-linejoin="round"/>
<path d="M309.504 126.836L298.149 124.494L290.236 132.972L288.422 120.922L278.038 115.295L288.283 110.187L289.773 98.22L297.917 107.114L309.217 105.356L304.016 115.961L309.504 126.836Z" stroke="#171717" stroke-width="2.77666" stroke-linecap="round" stroke-linejoin="round"/>
<path d="M512.137 230.794L502.993 223.659L492.147 227.759L495.857 216.153L489.047 206.51L500.485 206.463L507.12 196.404L510.48 207.981L521.401 211.405L512.035 218.606L512.137 230.794Z" stroke="#171717" stroke-width="2.77666" stroke-linecap="round" stroke-linejoin="round"/>
<path d="M495.506 302.962L492.896 294.114L483.975 291.745L491.749 285.961L491.814 276.567L499.226 281.833L508.185 278.4L504.992 287.441L510.462 294.716L501.077 295.039L495.506 302.962Z" stroke="#171717" stroke-width="2.77666" stroke-linecap="round" stroke-linejoin="round"/>
<path d="M117.45 332.29C116.969 329.014 116.411 325.753 115.775 322.508C115.71 322.129 115.637 321.759 115.554 321.389C115.498 321.083 115.442 320.777 115.368 320.481C114.812 317.714 114.192 314.947 113.518 312.198" stroke="#171717" stroke-width="2.77666" stroke-linecap="round" stroke-linejoin="round"/>
<path d="M106.983 331.809C109.519 328.466 112.021 325.101 114.488 321.711C114.488 321.702 114.488 321.693 114.498 321.693C114.785 321.286 115.081 320.888 115.368 320.481C117.367 317.714 119.338 314.931 121.281 312.133" stroke="#171717" stroke-width="2.77666" stroke-linecap="round" stroke-linejoin="round"/>
<path d="M123.466 326.487C122.596 326.626 121.753 326.164 120.995 325.711C119.244 324.656 117.504 323.589 115.775 322.509C115.349 322.25 114.933 321.991 114.507 321.704L114.498 321.694C110.453 319.168 106.456 316.555 102.504 313.855" stroke="#171717" stroke-width="2.77666" stroke-linecap="round" stroke-linejoin="round"/>
<path d="M102.726 325.748C106.594 324.267 110.515 322.921 114.488 321.712C114.494 321.707 114.5 321.704 114.507 321.703C114.849 321.592 115.201 321.49 115.553 321.389C118.896 320.38 122.264 319.473 125.659 318.667" stroke="#171717" stroke-width="2.77666" stroke-linecap="round" stroke-linejoin="round"/>
<path d="M211.183 118.645C209.119 116.018 207.052 113.392 204.982 110.766C202.057 107.056 199.132 103.341 196.208 99.6233" stroke="#171717" stroke-width="2.77666" stroke-linecap="round" stroke-linejoin="round"/>
<path d="M197.924 118.691C200.321 116.081 202.674 113.44 204.985 110.769C207.742 107.614 210.433 104.411 213.055 101.163" stroke="#171717" stroke-width="2.77666" stroke-linecap="round" stroke-linejoin="round"/>
<path d="M296.113 53.3898C297.686 51.1408 299.259 48.8856 300.833 46.6242C302.276 44.561 303.72 42.4918 305.164 40.4167" stroke="#171717" stroke-width="2.77666" stroke-linecap="round" stroke-linejoin="round"/>
<path d="M305.099 51.4926C303.675 49.8735 302.253 48.2508 300.833 46.6245C298.917 44.4495 297.007 42.2747 295.103 40.1001" stroke="#171717" stroke-width="2.77666" stroke-linecap="round" stroke-linejoin="round"/>
<path d="M486.075 332.614C484.511 329.717 482.892 326.852 481.217 324.019C479.69 321.409 478.114 318.833 476.488 316.291" stroke="#FFED88" stroke-width="2.77666" stroke-linecap="round" stroke-linejoin="round"/>
<path d="M472.082 331.485C475.192 329.079 478.236 326.589 481.214 324.016C484.583 321.111 487.862 318.097 491.052 314.975" stroke="#FFED88" stroke-width="2.77666" stroke-linecap="round" stroke-linejoin="round"/>
<path d="M287.678 208.608C290.57 205.814 293.619 203.185 296.81 200.736" stroke="#171717" stroke-width="2.77666" stroke-linecap="round" stroke-linejoin="round"/>
<path d="M280.283 203.134C282.596 196.046 284.717 188.898 286.644 181.691" stroke="#171717" stroke-width="2.77666" stroke-linecap="round" stroke-linejoin="round"/>
<path d="M266.296 200.509C265.793 196.853 264.996 193.244 263.912 189.717" stroke="#171717" stroke-width="2.77666" stroke-linecap="round" stroke-linejoin="round"/>
<path d="M226.975 334.101L223.228 329.357" stroke="#171717" stroke-width="2.77666" stroke-linecap="round" stroke-linejoin="round"/>
<path d="M213.055 352.532C213.776 350.995 214.837 349.644 216.159 348.58" stroke="#171717" stroke-width="2.77666" stroke-linecap="round" stroke-linejoin="round"/>
<path d="M257.786 339.532C256.334 337.559 254.882 335.585 253.428 333.612" stroke="#171717" stroke-width="2.77666" stroke-linecap="round" stroke-linejoin="round"/>
<path d="M270.315 331.346C271.184 329.501 272.409 327.847 273.92 326.478" stroke="#171717" stroke-width="2.77666" stroke-linecap="round" stroke-linejoin="round"/>
<path d="M226.122 372.992C225.17 371.396 224.217 369.801 223.265 368.206" stroke="#171717" stroke-width="2.77666" stroke-linecap="round" stroke-linejoin="round"/>
<path d="M213.656 388.779C215.11 386.879 217.549 385.749 218.506 383.555" stroke="#171717" stroke-width="2.77666" stroke-linecap="round" stroke-linejoin="round"/>
<path d="M198.592 341.909C197.264 340.458 195.937 339.007 194.611 337.556" stroke="#171717" stroke-width="2.77666" stroke-linecap="round" stroke-linejoin="round"/>
<path d="M182.995 348.078C181.038 349.063 179.368 350.537 178.15 352.359C177.959 352.644 177.613 352.979 177.333 352.781" stroke="#171717" stroke-width="2.77666" stroke-linecap="round" stroke-linejoin="round"/>
<path d="M171.767 363.877C171.05 363.561 170.425 363.068 169.951 362.445C168.747 361.163 167.372 360.054 165.865 359.148" stroke="#171717" stroke-width="2.77666" stroke-linecap="round" stroke-linejoin="round"/>
<path d="M153.173 381.792C154.342 379.275 155.792 376.897 157.495 374.705" stroke="#171717" stroke-width="2.77666" stroke-linecap="round" stroke-linejoin="round"/>
<path d="M169.087 386.823C167.35 385.833 165.631 384.812 163.93 383.76" stroke="#171717" stroke-width="2.77666" stroke-linecap="round" stroke-linejoin="round"/>
<path d="M178.724 374.385L183.415 367.276" stroke="#171717" stroke-width="2.77666" stroke-linecap="round" stroke-linejoin="round"/>
<path d="M178.666 392.909C176.97 395.56 175.395 398.283 173.942 401.078" stroke="#171717" stroke-width="2.77666" stroke-linecap="round" stroke-linejoin="round"/>
<path d="M146.264 366.249C147.616 363.862 148.969 361.476 150.322 359.093L150.036 359.392" stroke="#171717" stroke-width="2.77666" stroke-linecap="round" stroke-linejoin="round"/>
<path d="M147.553 404.736C145.929 403.686 144.306 402.636 142.683 401.585" stroke="#171717" stroke-width="2.77666" stroke-linecap="round" stroke-linejoin="round"/>
<path d="M196.003 409.381C194.037 408.011 192.01 406.738 189.921 405.561C189.909 405.42 189.898 405.28 189.886 405.139" stroke="#171717" stroke-width="2.77666" stroke-linecap="round" stroke-linejoin="round"/>
<path d="M172.795 425.839C173.701 423.149 174.866 420.553 176.272 418.088" stroke="#171717" stroke-width="2.77666" stroke-linecap="round" stroke-linejoin="round"/>
<path d="M164.713 414.547C163.09 413.821 161.792 412.522 161.067 410.898" stroke="#171717" stroke-width="2.77666" stroke-linecap="round" stroke-linejoin="round"/>
<path d="M146.299 422.778C147.735 420.553 149.33 418.435 151.074 416.442" stroke="#171717" stroke-width="2.77666" stroke-linecap="round" stroke-linejoin="round"/>
<path fill-rule="evenodd" clip-rule="evenodd" d="M234.393 505.236C232.431 504.894 230.432 504.514 228.701 503.524C228.554 503.441 228.411 503.351 228.275 503.25L228.053 503.593C220.012 510.729 210.891 516.545 201.029 520.825C198.151 522.075 195.069 523.204 191.959 522.815C190.135 522.536 188.392 521.867 186.851 520.853C182.427 518.067 179.401 513.571 176.809 509.035C175.587 506.888 174.412 504.666 173.94 502.242C173.237 498.614 174.181 494.83 175.893 491.552C177.605 488.274 180.049 485.453 182.529 482.723C188.625 476.015 195.102 469.662 201.927 463.696C204.594 461.357 207.437 459.018 210.789 457.973C192.605 451.439 171.867 454.927 153.182 461.577C152.46 461.834 151.666 461.457 151.409 460.734C151.151 460.012 151.529 459.218 152.251 458.961C172.114 451.892 194.849 448.125 214.64 456.497C215.034 456.664 215.31 456.99 215.427 457.369C217.482 457.413 219.555 457.784 221.584 458.161C211.525 449.452 200.664 441.714 189.146 435.05L189.128 434.902C175.328 437.065 161.271 437.887 148.953 431.679C136.931 432.41 124.678 433.308 113.6 438.028C102.263 442.859 92.2124 452.604 90.5006 464.811C89.1863 474.251 93.0271 483.885 99.1445 491.187C105.262 498.499 113.461 503.755 121.893 508.188C140.902 518.174 161.642 524.504 182.603 529.122C222.741 537.97 264.072 540.728 305.154 539.673C310.022 539.545 315.585 538.979 318.851 535.665C319.324 535.182 319.743 534.648 320.1 534.074C320.861 532.784 321.344 531.35 321.517 529.863C321.686 528.593 321.745 527.312 321.692 526.031C321.57 521.384 320.759 516.781 319.286 512.371L319.194 510.576C290.816 511.967 262.372 510.175 234.393 505.236ZM139.333 437.948C139.736 437.908 140.136 438.046 140.429 438.325C143.141 440.913 145.582 443.77 147.715 446.853C148.151 447.484 147.993 448.348 147.363 448.784C147.318 448.815 147.272 448.843 147.225 448.868C146.926 449.459 146.237 449.767 145.582 449.567C144.613 449.271 143.599 449.152 142.587 449.216C142.56 449.218 142.532 449.219 142.505 449.219C139.136 449.231 135.769 449.244 132.401 449.257C131.842 449.259 131.336 448.925 131.118 448.41C130.899 447.895 131.012 447.299 131.402 446.899C133.935 444.302 136.253 441.505 138.333 438.534C138.565 438.202 138.93 437.988 139.333 437.948ZM143.995 446.457C142.655 444.701 141.205 443.03 139.653 441.456C138.378 443.189 137.025 444.861 135.597 446.468C137.882 446.459 140.168 446.451 142.454 446.443C142.968 446.412 143.483 446.417 143.995 446.457ZM137.505 475.109C137.097 474.869 136.594 474.855 136.172 475.07C135.751 475.285 135.467 475.7 135.422 476.172C135.116 479.311 134.592 482.425 133.852 485.49C133.721 486.037 133.932 486.609 134.386 486.94C134.842 487.27 135.451 487.293 135.93 486.998C138.852 485.2 141.693 483.285 144.454 481.257C144.77 481.271 145.085 481.177 145.346 480.984C145.715 480.71 145.924 480.27 145.904 479.81C145.899 479.675 145.894 479.539 145.889 479.405C145.863 478.638 145.22 478.038 144.454 478.065C144.271 478.071 144.096 478.112 143.939 478.183C141.712 477.341 139.56 476.313 137.505 475.109ZM137.26 482.867C138.624 481.976 139.969 481.059 141.296 480.114C140.16 479.632 139.044 479.104 137.95 478.53C137.765 479.983 137.535 481.429 137.26 482.867ZM172.647 466.048C173.13 466.034 173.584 466.272 173.848 466.675C175.401 469.046 176.794 471.518 178.02 474.073C178.352 474.764 178.06 475.593 177.369 475.925C177.163 476.023 176.945 476.067 176.732 476.061C176.518 476.427 176.14 476.692 175.685 476.742L172.352 477.113H172.352L165.608 477.865C165.011 477.932 164.44 477.608 164.191 477.062C163.942 476.516 164.071 475.872 164.512 475.465C167.264 472.927 169.615 469.986 171.484 466.742C171.725 466.324 172.165 466.061 172.647 466.048ZM174.905 474.035C174.219 472.684 173.484 471.359 172.7 470.063C171.638 471.684 170.46 473.225 169.174 474.674L172.044 474.353H172.045L174.905 474.035ZM249.796 515.076C249.382 515.028 248.968 515.168 248.669 515.459C248.37 515.749 248.218 516.158 248.253 516.573C248.512 519.609 248.598 522.658 248.51 525.704C248.494 526.241 248.79 526.74 249.269 526.983C249.749 527.226 250.325 527.171 250.75 526.841C253.711 524.539 256.548 522.09 259.347 519.655C259.655 519.734 259.963 519.815 260.27 519.898C261.01 520.097 261.773 519.658 261.971 518.918C262.171 518.178 261.732 517.415 260.992 517.217C260.617 517.116 260.242 517.018 259.866 516.922C259.578 516.72 259.227 516.638 258.887 516.682C255.892 515.966 252.857 515.429 249.796 515.076ZM251.148 518.046C252.774 518.271 254.393 518.551 256 518.883C254.449 520.224 252.896 521.549 251.318 522.836C251.308 521.238 251.251 519.641 251.148 518.046Z" fill="#171717"/>
<path fill-rule="evenodd" clip-rule="evenodd" d="M375.51 500.948C367.568 503.765 359.396 505.883 351.086 507.278C343.407 508.588 335.666 509.511 327.894 510.045C326.728 510.138 325.562 510.212 324.396 510.284C322.665 510.395 320.925 510.487 319.195 510.571C290.817 511.962 262.373 510.172 234.393 505.233C232.431 504.891 230.432 504.511 228.701 503.521C228.554 503.44 228.412 503.351 228.276 503.252C226.636 502.181 225.359 500.639 224.611 498.829C222.926 495.016 223.009 490.037 223.715 485.752C224.267 482.283 225.169 478.878 226.407 475.59C228.693 469.676 232.311 464.456 237.92 461.754L237.892 461.449C253.778 460.2 269.914 460.222 286.046 460.243C305.292 460.269 324.533 460.295 343.342 458.163C343.682 458.315 344.082 458.33 344.451 458.174C354.331 453.982 365.337 453.251 375.684 456.099C376.423 456.303 377.187 455.868 377.391 455.129C377.595 454.39 377.161 453.626 376.421 453.422C365.471 450.407 353.823 451.181 343.367 455.617C342.524 445.152 342.221 434.65 342.461 424.153L342.794 424.161C356.565 423.023 370.787 422.986 383.764 427.771C396.73 432.546 408.317 442.949 411.261 456.461C411.594 458.004 411.816 459.569 411.927 461.143C412.51 469.251 410.02 477.636 404.68 483.762C401.746 487.122 398.063 489.741 394.25 492.063C388.311 495.635 382.034 498.611 375.51 500.948ZM266.437 470.055C266.126 469.648 265.617 469.446 265.112 469.528C264.606 469.61 264.187 469.963 264.021 470.447C262.956 473.548 261.263 476.43 259.457 479.374C259.315 479.571 259.21 479.792 259.148 480.027C259.074 480.304 259.062 480.592 259.112 480.874C259.125 480.948 259.144 481.021 259.169 481.092C259.422 481.815 260.029 482.097 260.391 482.192C260.731 482.282 261.051 482.271 261.236 482.256C265.138 482.003 269.052 481.962 272.958 482.132C273.725 482.166 274.372 481.572 274.406 480.806C274.432 480.201 274.068 479.67 273.536 479.457C273.489 479.317 273.418 479.182 273.323 479.058C271.027 476.057 268.732 473.056 266.437 470.055ZM265.725 473.695C267.145 475.552 268.566 477.409 269.986 479.267C267.556 479.229 265.124 479.27 262.696 479.392C263.784 477.575 264.847 475.686 265.725 473.695ZM371.314 467.705C371.67 467.398 371.861 466.917 371.776 466.419C371.647 465.663 370.929 465.155 370.173 465.285L357.421 467.468C357.027 467.535 356.682 467.768 356.472 468.108C356.263 468.448 356.21 468.861 356.327 469.243C356.716 470.511 357.502 471.478 358.241 472.258C358.515 472.546 358.808 472.834 359.081 473.102L359.081 473.103L359.082 473.104L359.205 473.225L359.307 473.326L359.347 473.366C359.702 473.718 360.018 474.043 360.292 474.375L360.293 474.375C361.329 475.623 361.941 477.135 362.643 478.867C362.779 479.202 362.918 479.545 363.064 479.895L364.937 477.128H364.937L363.064 479.895C363.449 480.822 364.11 482.342 365.563 483.075C365.938 483.265 366.378 483.274 366.76 483.101C367.143 482.929 367.426 482.593 367.532 482.187C368.792 477.359 370.053 472.532 371.314 467.705ZM366.641 474.611L368.254 468.43L359.83 469.872C359.96 470.027 360.101 470.184 360.256 470.347C360.495 470.598 360.738 470.837 361 471.096L361 471.096C361.099 471.193 361.2 471.292 361.303 471.395C361.672 471.76 362.066 472.163 362.429 472.601L368.254 468.43L362.43 472.603C363.566 473.971 364.312 475.608 364.937 477.128L366.641 474.611ZM366.641 474.611L364.937 477.128C365.047 477.396 365.153 477.659 365.257 477.918L365.259 477.923C365.366 478.188 365.47 478.447 365.573 478.698L366.641 474.611ZM394.913 450.736C394.938 450.245 394.701 449.776 394.29 449.506C393.878 449.235 393.355 449.202 392.913 449.419L385.277 453.174C384.884 453.368 384.605 453.735 384.525 454.166C384.444 454.596 384.572 455.04 384.869 455.361C386.061 456.654 387.432 457.768 388.94 458.671L388.941 458.672C389.213 458.834 389.463 458.977 389.699 459.111C390.146 459.367 390.544 459.594 390.943 459.872C391.511 460.266 391.89 460.645 392.115 461.075C392.47 461.754 393.309 462.018 393.988 461.663C394.668 461.307 394.931 460.468 394.576 459.789C394.538 459.717 394.5 459.647 394.46 459.579C394.611 456.631 394.762 453.683 394.913 450.736ZM392.019 452.954L391.805 457.126C391.512 456.949 391.218 456.78 390.945 456.624L390.942 456.622H390.941L390.803 456.543C390.646 456.453 390.498 456.368 390.366 456.288C389.63 455.847 388.931 455.347 388.279 454.792L392.019 452.954ZM311.67 490.066C312.045 490.313 312.277 490.724 312.294 491.172C312.434 494.821 312.422 498.468 312.259 502.11C312.252 502.288 312.211 502.455 312.144 502.608C312.126 502.805 312.067 503.002 311.96 503.184C311.575 503.846 310.725 504.071 310.062 503.685C307.163 501.999 304.348 500.182 301.566 498.387L298.959 496.704C298.519 496.421 298.276 495.915 298.33 495.396C298.384 494.876 298.725 494.43 299.212 494.242L310.408 489.93C310.826 489.769 311.296 489.819 311.67 490.066ZM309.555 500.153C309.625 497.845 309.633 495.535 309.579 493.225L302.758 495.852L303.071 496.054C305.234 497.45 307.379 498.834 309.555 500.153ZM332.607 479.778L330.352 475.523C330.91 475.617 331.501 475.751 332.145 475.897L332.371 475.948C333.061 476.103 333.816 476.269 334.61 476.362L332.607 479.778ZM338.654 474.55C338.807 475.177 338.508 475.808 337.964 476.102C337.94 476.163 337.91 476.223 337.875 476.282L333.745 483.33C333.49 483.764 333.021 484.026 332.517 484.016C332.014 484.005 331.556 483.722 331.32 483.278C329.804 480.418 328.289 477.559 326.773 474.699C326.56 474.297 326.558 473.815 326.767 473.411C326.977 473.006 327.371 472.73 327.823 472.672C329.535 472.452 331.23 472.84 332.639 473.161C332.71 473.177 332.78 473.194 332.849 473.209C332.893 473.219 332.938 473.229 332.982 473.239C334.566 473.596 335.809 473.815 336.975 473.531C337.72 473.349 338.472 473.805 338.654 474.55Z" fill="#171717"/>
<path d="M212.666 304.717C211.724 307.98 210.782 311.241 209.839 314.501" stroke="#171717" stroke-width="2.77666" stroke-linecap="round" stroke-linejoin="round"/>
<path d="M264.767 309.355C264.847 313.894 264.813 318.434 264.664 322.974L264.683 322.582" stroke="#171717" stroke-width="2.77666" stroke-linecap="round" stroke-linejoin="round"/>
<path d="M254.63 309.44C254.77 313.894 254.847 318.349 254.861 322.806C254.876 322.705 254.892 322.603 254.907 322.502" stroke="#171717" stroke-width="2.77666" stroke-linecap="round" stroke-linejoin="round"/>
<path d="M244.771 309.438C244.016 313.933 244.757 318.551 244.317 323.087C244.31 323.164 244.313 323.261 244.383 323.295C244.453 323.328 244.513 323.176 244.435 323.184" stroke="#171717" stroke-width="2.77666" stroke-linecap="round" stroke-linejoin="round"/>
<path d="M235.378 309.191C235.477 313.817 235.516 318.445 235.494 323.074" stroke="#171717" stroke-width="2.77666" stroke-linecap="round" stroke-linejoin="round"/>
<path d="M250.866 323.153C250.747 330.376 250.627 337.598 250.508 344.819" stroke="#171717" stroke-width="2.77666" stroke-linecap="round" stroke-linejoin="round"/>
<path d="M199.563 396.092C198.58 408.308 198.653 420.586 199.782 432.789" stroke="#171717" stroke-width="2.77666" stroke-linecap="round" stroke-linejoin="round"/>
<g opacity="0.1">
<path d="M228.865 313.599C229.104 315.864 230.244 320.426 227.731 321.749C226.469 322.414 224.62 322.45 223.222 322.632C221.066 322.914 218.912 323.199 216.762 323.522C208.525 324.704 200.39 326.51 192.427 328.926C177.167 333.673 162.664 340.974 151.37 352.476C140.778 363.262 133.317 377.132 131.905 392.303C130.447 407.973 136.665 424.43 150.886 432.278C168.727 442.123 189.222 436.994 207.488 431.364C215.413 428.921 212.032 416.442 204.051 418.899C189.885 423.266 173.355 428.755 158.972 422.101C146.865 416.501 142.438 402.843 144.164 390.297C148.232 360.784 176.536 343.155 203.093 336.399C207.126 335.373 211.2 334.512 215.295 333.781C219.556 333.019 223.968 332.733 228.188 331.79C232.39 330.851 235.932 328.244 237.417 324.116C238.758 320.389 238.099 316.195 237.048 312.49C235.815 308.143 228.344 308.775 228.86 313.598L228.865 313.599Z" fill="#171717"/>
</g>
<g opacity="0.1">
<path d="M373.848 147.228C358.094 149.053 348.536 165.599 350.768 180.445L357.5 173.712C346.348 169.457 335.854 180.379 336.019 191.124C336.218 204.099 346.994 212.305 357.089 218.355L358.647 206.43C349.253 208.02 341.355 215.222 338.434 224.213C335.394 233.569 338.58 244.405 345.703 251.029L348.592 240.086C336.971 243.246 329.661 256.166 333.234 267.742L339.547 259.455C328.769 258.183 315.721 258.725 309.71 269.466C303.652 280.293 311.181 290.929 318.94 298.295L325.337 287.306C318.708 285.778 312.637 289.648 310.386 295.953C308.22 302.025 311.011 308.184 314.036 313.399L316.385 304.439C313.261 306.134 310.667 308.66 308.889 311.738C307.112 314.816 306.222 318.325 306.316 321.878L317.45 317.267C311.242 312.441 302.79 311.368 296.253 316.377C290.626 320.69 288.133 328.821 290.822 335.483L297.108 327.231C289.446 327.849 282.485 330.838 277.062 336.359C271.202 342.325 280.355 351.493 286.241 345.539C289.104 342.522 292.967 340.649 297.108 340.27C300.83 339.98 305.142 336.256 303.394 332.018C302.567 330.01 302.345 328.276 303.883 326.868C304.929 325.913 307.127 325.636 308.223 326.493C310.336 328.148 312.715 329 315.349 327.842C316.528 327.351 317.537 326.523 318.25 325.464C318.963 324.404 319.349 323.158 319.36 321.88C319.286 319.113 320.413 317.12 322.991 315.75C326.128 314.085 327.053 309.76 325.34 306.791C324.438 305.226 322.622 302.82 322.728 300.885C322.831 299.022 323.531 300.382 321.837 299.989C327.976 301.417 333.217 293.689 328.234 289C325.077 286.031 318.087 279.918 321.43 275.392C325.146 270.36 333.975 271.896 339.542 272.552C343.767 273.051 346.998 267.969 345.855 264.265C344.428 259.643 347.031 254.086 352.067 252.716C356.697 251.458 358.593 245.157 354.956 241.774C351.098 238.186 349.286 232.775 351.035 227.692C352.72 222.805 357.164 219.86 362.111 219.017C367.878 218.034 368.139 209.765 363.669 207.092C357.939 203.666 350.625 199.837 348.361 193.079C347.599 190.802 347.28 188.161 348.831 186.151C350.304 184.241 352.373 183.487 354.586 184.271C358.884 185.793 361.975 181.287 361.319 177.539C359.5 167.153 367.004 158.636 375.85 154.635C379.35 153.052 377.7 146.785 373.844 147.234L373.848 147.228Z" fill="#171717"/>
</g>
<g opacity="0.1">
<path d="M407.637 246.329C404.546 246.213 401.44 249.378 399.454 251.502C396.957 254.211 394.987 257.364 393.646 260.796C392.445 264.046 391.928 267.509 392.125 270.968C392.322 274.427 393.23 277.808 394.793 280.901C401.108 293.306 420.229 295.419 427.297 282.497L416.053 281.027C417.086 284.913 419.286 288.389 422.355 290.986C425.424 293.584 429.216 295.177 433.22 295.553C439.725 296.124 450.921 291.011 449.192 282.908C448.89 281.495 447.202 280.109 445.712 280.258C443.37 280.494 442.047 281.866 439.941 282.635C438.202 283.304 436.349 283.631 434.485 283.597C431.135 283.386 428.729 280.872 427.919 277.756C426.599 272.683 419.251 271.679 416.675 276.286C415.463 278.454 412.795 279.302 410.504 278.994C407.547 278.596 405.311 276.322 404.106 273.383C402.52 269.527 403.175 265.657 404.303 261.795C404.977 259.49 406.254 257.374 407.347 255.251C408.457 253.102 410.31 251.536 410.267 248.96C410.254 248.267 409.972 247.606 409.482 247.115C408.991 246.625 408.33 246.343 407.637 246.329Z" fill="#171717"/>
</g>
<g opacity="0.1">
<path d="M411.662 323.816L411.698 323.518C411.698 323.229 411.622 322.946 411.479 322.696C411.336 322.446 411.129 322.237 410.88 322.092C405.942 318.69 398.242 321.938 394.967 326.204C390.908 331.49 389.774 338.989 393.625 344.788C402.279 357.824 423.382 352.285 426.658 337.738L422.8 340.675C427.228 340.298 431.097 338.576 434.943 336.409C438.579 334.359 441.847 331.678 443.867 327.989C444.98 325.959 442.306 323.773 440.616 325.482C438.244 327.877 435.788 330.246 432.695 331.678C429.555 333.132 426.185 332.931 422.8 332.675C420.91 332.532 419.571 334.048 418.942 335.612C417.302 339.694 414.317 343.299 409.703 343.955C407.527 344.245 405.314 343.863 403.361 342.861C401.408 341.858 399.808 340.281 398.776 338.344C396.366 334.031 397.441 328.719 401.85 326.309C404.22 325.013 406.412 324.978 409.03 325.137C410.054 325.197 411.508 325.133 411.662 323.824V323.816Z" fill="#171717"/>
</g>
<g opacity="0.1">
<path d="M322.723 192.394C318.334 192.791 316.318 195.276 313.963 198.742L315.237 197.763C310.361 199.008 311.794 206.326 314.244 209.116C317.07 212.335 323.376 214.328 326.528 210.457C328.367 208.199 327.333 204.341 324.015 204.391C322.298 204.417 320.66 205.215 319.473 203.562C318.312 201.944 318.944 199.759 317.31 198.309L317.934 199.816C318.113 197.428 321.522 195.089 323.277 193.728C323.384 193.617 323.456 193.478 323.484 193.327C323.512 193.176 323.496 193.02 323.438 192.878C323.379 192.736 323.28 192.615 323.153 192.527C323.026 192.441 322.877 192.393 322.723 192.39V192.394Z" fill="#171717"/>
</g>
<g opacity="0.1">
<path d="M319.598 229.509C312.495 229.728 307.606 237.561 309.733 244.217C310.289 245.97 311.221 247.582 312.465 248.939C313.708 250.295 315.232 251.363 316.932 252.069C320.183 253.434 325.694 254.267 327.065 250.059C327.187 249.635 327.192 249.186 327.079 248.759C326.966 248.332 326.74 247.944 326.424 247.636C324.395 245.862 322.674 246.909 320.287 246.529C319.215 246.364 318.199 245.941 317.326 245.298C316.452 244.654 315.748 243.809 315.274 242.834C312.916 237.987 315.706 233.647 320.108 231.386C320.294 231.271 320.438 231.099 320.518 230.896C320.598 230.693 320.61 230.469 320.553 230.258C320.496 230.047 320.373 229.86 320.201 229.725C320.029 229.59 319.818 229.515 319.6 229.509H319.598Z" fill="#171717"/>
</g>
<g opacity="0.1">
<path d="M115.622 127.183C107.412 129.579 99.511 133.683 92.0453 137.797C84.4256 142.06 77.5072 147.471 71.5319 153.837C58.9434 167.256 49.9366 184.352 48.565 202.901C45.6677 242.088 71.9676 276.587 107.669 290.294C118.338 294.39 130 295.393 141.353 295.367C147.111 295.354 153.135 294.222 158.812 293.256C161.618 292.876 164.388 292.27 167.096 291.444C169.788 290.515 172.379 289.159 174.985 288.017C177.385 286.966 175.503 283.811 173.347 284.13C168.583 284.838 163.653 285.16 158.852 285.644C154.311 286.149 149.729 286.169 145.183 285.703C140.465 285.185 135.845 285.166 131.194 284.076C126.715 283.076 122.294 281.837 117.947 280.362C102.603 274.985 89.1105 267.094 78.3828 254.661C56.6986 229.527 53.1842 189.377 74.0298 162.647C79.6166 155.484 86.2329 149.485 93.2611 143.793C100.487 137.944 108.425 133.836 116.591 129.487C117.852 128.815 116.988 126.787 115.621 127.186L115.622 127.183Z" fill="#171717"/>
</g>
<g opacity="0.1">
<path d="M241.183 308.732C243.041 306.649 242.572 304.163 242.573 301.502C242.573 298.43 242.398 295.308 242.601 292.241C242.984 286.459 243.215 280.676 243.522 274.884C243.82 269.261 243.966 263.476 245.645 258.055C246.449 255.712 247.542 253.479 248.899 251.406C250.069 249.474 251.755 247.811 252.735 245.795C252.885 245.526 252.962 245.223 252.96 244.916C252.957 244.608 252.876 244.306 252.723 244.04C252.57 243.773 252.35 243.55 252.086 243.393C251.822 243.236 251.521 243.15 251.213 243.142C246.24 242.904 242.134 248.092 240.297 252.141C237.707 257.849 237.088 264.07 236.696 270.258C236.286 276.751 235.73 283.42 236.146 289.923C236.369 293.398 236.428 296.857 236.539 300.342C236.628 303.147 236.154 306.648 238.295 308.729C238.681 309.107 239.199 309.319 239.74 309.319C240.28 309.319 240.798 309.107 241.183 308.729V308.732Z" fill="#171717"/>
</g>
</svg>
