<svg width="50" height="28" viewBox="0 0 50 28" fill="none" xmlns="http://www.w3.org/2000/svg">
<path d="M50 3.35459C48.1208 3.9154 46.1336 4.28613 44.1 4.45524C46.2454 3.57355 47.8532 2.18649 48.625 0.551359C46.6089 1.37696 44.4019 1.95864 42.1 2.27113C40.5614 1.12331 38.5124 0.359255 36.2745 0.0988039C34.0366 -0.161647 31.7364 0.0962363 29.7345 0.832008C27.7326 1.56778 26.1423 2.73982 25.2131 4.16432C24.2839 5.58882 24.0682 7.18519 24.6 8.70308C20.5236 8.56124 16.5361 7.83108 12.8966 6.56001C9.25717 5.28894 6.04712 3.5054 3.475 1.32526C2.57284 2.409 2.0988 3.63633 2.1 4.88519C2.0968 6.04497 2.51054 7.1873 3.30439 8.21048C4.09823 9.23365 5.24755 10.1059 6.65 10.7496C5.01994 10.7191 3.42471 10.4182 2 9.87253V9.95851C2.01222 11.5835 2.83999 13.1557 4.34329 14.4092C5.84659 15.6627 7.93314 16.5205 10.25 16.8376C9.35814 17.0243 8.43219 17.1228 7.5 17.13C6.85473 17.1248 6.21106 17.0845 5.575 17.0096C6.23477 18.4074 7.51156 19.629 9.22769 20.5044C10.9438 21.3798 13.0139 21.8654 15.15 21.8937C11.543 23.8461 7.08971 24.9117 2.5 24.9205C1.66434 24.9224 0.829339 24.888 0 24.8173C4.68607 26.8987 10.147 28.0036 15.725 27.9989C19.5742 28.0264 23.3928 27.526 26.9578 26.5269C30.5227 25.5279 33.7626 24.0501 36.488 22.1801C39.2135 20.31 41.3699 18.0851 42.8314 15.6353C44.2929 13.1855 45.0301 10.56 45 7.91198C45 7.61962 45 7.31006 45 7.00051C46.9617 5.99411 48.6537 4.76037 50 3.35459Z" fill="black"/>
</svg>
