<svg width="28" height="35" viewBox="0 0 28 35" fill="none" xmlns="http://www.w3.org/2000/svg">
<path d="M17.9358 0.456502H17.938H27.2919C27.3441 0.456502 27.3938 0.463705 27.4372 0.476152L27.563 0.0373375L27.4372 0.476152C27.4809 0.488683 27.5127 0.504883 27.533 0.518954C27.5372 0.521841 27.5406 0.524482 27.5435 0.526818V7.24691C27.5406 7.2493 27.537 7.25202 27.5327 7.25499L27.5435 7.27059L27.5327 7.25499C27.488 7.28594 27.4019 7.31753 27.2912 7.31753H18.5428C17.6117 7.31753 16.857 8.07229 16.857 9.00333V11.4838V11.9403H17.3135H27.2912C27.4019 11.9403 27.488 11.9719 27.5327 12.0028C27.537 12.0058 27.5406 12.0085 27.5435 12.0109V18.8386C27.5406 18.841 27.537 18.8437 27.5327 18.8466L27.5435 18.8622L27.5327 18.8466C27.488 18.8776 27.402 18.9092 27.2912 18.9092H18.0223H17.5658V19.3657V34.4729C17.5629 34.4753 17.5593 34.478 17.555 34.481C17.5103 34.5119 17.4243 34.5435 17.3135 34.5435H7.88091C7.77013 34.5435 7.6841 34.5119 7.63936 34.481C7.63505 34.478 7.63149 34.4753 7.62856 34.4729V19.3652V18.9087H7.17207H0.708843C0.598059 18.9087 0.512035 18.8771 0.467284 18.8462L0.456491 18.8618L0.46728 18.8462C0.46298 18.8432 0.459416 18.8405 0.456491 18.8381V12.0104C0.459416 12.008 0.462981 12.0053 0.467282 12.0024C0.512033 11.9714 0.598057 11.9398 0.708843 11.9398H7.17207H7.62856V11.4833V8.70386L7.64831 8.64694L7.64841 8.57028C7.65085 6.61 7.95882 4.61788 9.33147 3.1055C10.6989 1.59891 13.2164 0.468618 17.8752 0.458461L17.8898 0.458429L17.9045 0.457457C17.9148 0.456769 17.9253 0.456446 17.9358 0.456502Z" fill="black" stroke="black" stroke-width="0.912982"/>
</svg>
