<svg width="42" height="29" viewBox="0 0 42 29" fill="none" xmlns="http://www.w3.org/2000/svg">
<path d="M32.214 5.017C31.7156 5.017 31.2284 5.11905 30.814 5.31024C30.3995 5.50144 30.0766 5.77319 29.8858 6.09113C29.6951 6.40907 29.6452 6.75893 29.7424 7.09646C29.8397 7.43398 30.0797 7.74402 30.4321 7.98737C30.7845 8.23071 31.2335 8.39643 31.7224 8.46357C32.2112 8.5307 32.7179 8.49625 33.1784 8.36455C33.6388 8.23285 34.0324 8.00983 34.3093 7.72369C34.5862 7.43755 34.734 7.10114 34.734 6.757C34.734 6.29552 34.4685 5.85295 33.9959 5.52663C33.5233 5.20032 32.8823 5.017 32.214 5.017ZM41.874 8.526C41.8332 7.32293 41.5068 6.13263 40.908 5.0025C40.374 4.03554 39.543 3.15995 38.472 2.436C37.4321 1.69277 36.1611 1.12256 34.755 0.7685C33.1226 0.342433 31.3968 0.111954 29.652 0.0869999C27.426 -8.10251e-08 26.712 0 21 0C15.288 0 14.574 -8.10251e-08 12.348 0.0869999C10.6032 0.111954 8.87742 0.342433 7.245 0.7685C5.84152 1.12614 4.57156 1.69586 3.528 2.436C2.45159 3.15401 1.62577 4.03164 1.113 5.0025C0.495938 6.12965 0.162141 7.32127 0.126 8.526C-1.17347e-07 10.063 0 10.556 0 14.5C0 18.444 -1.17347e-07 18.937 0.126 20.474C0.162141 21.6787 0.495938 22.8704 1.113 23.9975C1.62577 24.9684 2.45159 25.846 3.528 26.564C4.57156 27.3041 5.84152 27.8739 7.245 28.2315C8.87742 28.6576 10.6032 28.888 12.348 28.913C14.574 29 15.288 29 21 29C26.712 29 27.426 29 29.652 28.913C31.3968 28.888 33.1226 28.6576 34.755 28.2315C36.1611 27.8774 37.4321 27.3072 38.472 26.564C39.5477 25.8427 40.3795 24.9664 40.908 23.9975C41.5068 22.8674 41.8332 21.6771 41.874 20.474C41.874 18.937 42 18.444 42 14.5C42 10.556 42 10.063 41.874 8.526ZM38.094 20.3C38.0787 21.2204 37.8373 22.1324 37.38 22.997C37.0447 23.628 36.5061 24.1982 35.805 24.6645C35.1239 25.1437 34.2998 25.5148 33.39 25.752C32.1378 26.0677 30.817 26.2344 29.484 26.245C27.384 26.3175 26.607 26.332 21.084 26.332C15.561 26.332 14.784 26.332 12.684 26.245C11.2999 26.2629 9.92165 26.1157 8.61 25.81C7.74014 25.5607 6.95385 25.1905 6.3 24.7225C5.60299 24.2567 5.07117 23.686 4.746 23.055C4.2333 22.178 3.94893 21.2453 3.906 20.3C3.906 18.85 3.78 18.3135 3.78 14.5C3.78 10.6865 3.78 10.15 3.906 8.7C3.91541 7.75903 4.1642 6.82652 4.641 5.945C5.0107 5.33297 5.57816 4.78741 6.3 4.35C6.93801 3.85144 7.7265 3.45549 8.61 3.19C9.89006 2.87106 11.2392 2.70437 12.6 2.697C14.7 2.697 15.477 2.61 21 2.61C26.523 2.61 27.3 2.61 29.4 2.697C30.733 2.70756 32.0538 2.87426 33.306 3.19C34.2603 3.43455 35.1168 3.83213 35.805 4.35C36.4932 4.79541 37.0309 5.33996 37.38 5.945C37.8467 6.82795 38.0883 7.76008 38.094 8.7C38.199 10.15 38.22 10.6865 38.22 14.5C38.22 18.3135 38.199 18.85 38.094 20.3ZM21 7.0615C18.8702 7.06437 16.7894 7.50306 15.0206 8.32216C13.2517 9.14125 11.8742 10.304 11.062 11.6634C10.2499 13.0229 10.0395 14.5181 10.4576 15.96C10.8756 17.402 11.9033 18.7261 13.4108 19.7649C14.9182 20.8038 16.8378 21.5108 18.927 21.7966C21.0162 22.0825 23.1812 21.9343 25.1485 21.3709C27.1158 20.8075 28.797 19.854 29.9799 18.6311C31.1627 17.4082 31.794 15.9706 31.794 14.5C31.7968 13.5214 31.5193 12.5521 30.9776 11.6478C30.4359 10.7435 29.6406 9.92207 28.6374 9.23077C27.6343 8.53947 26.4431 7.99193 25.1324 7.61965C23.8217 7.24736 22.4173 7.05768 21 7.0615ZM21 19.3285C19.6169 19.3285 18.2649 19.0453 17.1149 18.5148C15.9649 17.9842 15.0686 17.2301 14.5393 16.3478C14.01 15.4655 13.8715 14.4946 14.1414 13.558C14.4112 12.6214 15.0772 11.761 16.0552 11.0857C17.0332 10.4105 18.2792 9.95059 19.6357 9.76428C20.9922 9.57797 22.3983 9.67359 23.6761 10.039C24.9539 10.4045 26.0461 11.0234 26.8145 11.8174C27.5829 12.6115 27.993 13.545 27.993 14.5C27.993 15.1341 27.8121 15.762 27.4607 16.3478C27.1093 16.9336 26.5942 17.4659 25.9448 17.9143C25.2954 18.3626 24.5245 18.7183 23.6761 18.961C22.8277 19.2036 21.9183 19.3285 21 19.3285Z" fill="black"/>
</svg>
